<?xml version="1.0" encoding="UTF-8"?>
<svg version="1.1" xmlns="http://www.w3.org/2000/svg" width="512" height="512">
<path d="M0 0 C0.57443848 0.41749512 1.14887695 0.83499023 1.74072266 1.26513672 C10.39296123 7.58570857 18.28131115 14.57889359 26 22 C26.54688477 22.51965332 27.09376953 23.03930664 27.65722656 23.57470703 C35.94102146 31.47179512 43.18657241 39.81134296 50 49 C50.4237793 49.56299805 50.84755859 50.12599609 51.28417969 50.70605469 C88.28976672 99.9994308 103.9601537 163.54712486 95.47875977 224.53686523 C90.03459657 259.08048521 78.02761277 293.15488941 58 322 C57.48211914 322.74942871 56.96423828 323.49885742 56.43066406 324.27099609 C48.91900984 335.03419242 40.86050425 344.95907682 31.65527344 354.31396484 C30.06874984 355.92997251 28.50524505 357.56539761 26.9453125 359.20703125 C19.8615146 366.57955821 12.19563123 372.90360857 4 379 C3.43555176 379.42522949 2.87110352 379.85045898 2.28955078 380.28857422 C-28.40261106 403.32762557 -64.23344274 417.6659862 -102 424 C-103.20914062 424.20625 -104.41828125 424.4125 -105.6640625 424.625 C-161.42540878 432.92973337 -222.72681755 419.12819645 -269 387 C-269.74942871 386.48211914 -270.49885742 385.96423828 -271.27099609 385.43066406 C-282.03419242 377.91900984 -291.95907682 369.86050425 -301.31396484 360.65527344 C-302.92997251 359.06874984 -304.56539761 357.50524505 -306.20703125 355.9453125 C-313.57955821 348.8615146 -319.90360857 341.19563123 -326 333 C-326.63784424 332.15332764 -326.63784424 332.15332764 -327.28857422 331.28955078 C-350.31835733 300.60973592 -364.75532458 264.76986653 -371 227 C-371.12842285 226.27683594 -371.2568457 225.55367188 -371.38916016 224.80859375 C-381.31404328 167.17486686 -364.75701996 104.48985913 -331.8828125 56.9375 C-329.96686929 54.25368849 -328.00512283 51.61768581 -326 49 C-325.37738281 48.18402344 -324.75476563 47.36804688 -324.11328125 46.52734375 C-318.76835324 39.68626956 -312.97476326 33.28881636 -307 27 C-306.49307617 26.46439453 -305.98615234 25.92878906 -305.46386719 25.37695312 C-297.55685312 17.08026089 -289.18303471 9.84528464 -280 3 C-278.57880859 1.92105469 -278.57880859 1.92105469 -277.12890625 0.8203125 C-257.92689615 -13.50455425 -236.58203118 -24.17707185 -214 -32 C-212.96746094 -32.36665771 -212.96746094 -32.36665771 -211.9140625 -32.74072266 C-199.58885352 -37.08115142 -186.83848525 -39.67838514 -174 -42 C-173.2565332 -42.13567383 -172.51306641 -42.27134766 -171.74707031 -42.41113281 C-112.80486173 -52.52446488 -47.80183791 -35.12468293 0 0 Z M-273 55 C-273.77988281 55.72703125 -274.55976563 56.4540625 -275.36328125 57.203125 C-301.45497394 82.22890484 -318.35937428 117.02488767 -326 152 C-326.16371094 152.71220703 -326.32742188 153.42441406 -326.49609375 154.15820312 C-332.08016066 179.42495216 -331.02686563 208.97811648 -325 234 C-324.79101074 234.88848633 -324.58202148 235.77697266 -324.36669922 236.69238281 C-312.34250865 286.32031541 -280.17400908 328.50611947 -236.97802734 355.25195312 C-193.34524907 381.48921408 -141.38784629 389.09760654 -91.9609375 377.27294922 C-41.50658338 364.44160692 0.29401798 332.46269141 27.3828125 288.15625 C38.16020722 269.98187562 45.15361655 250.5132433 50 230 C50.19352051 229.19401367 50.38704102 228.38802734 50.58642578 227.55761719 C56.25069755 202.59586941 55.05651571 172.70125308 49 148 C48.75862305 147.0090332 48.51724609 146.01806641 48.26855469 144.99707031 C35.74599508 95.26911979 3.85109041 52.52746021 -40 26 C-115.96487636 -18.62403624 -209.84833838 -5.2123036 -273 55 Z " fill="#000000" transform="translate(394,65)"/>
<path d="M0 0 C6.43236781 3.82498353 10.46342975 8.85102503 12.48046875 16.08984375 C12.73773766 18.92416 12.73773766 18.92416 12.74789429 21.90716553 C12.75642426 23.04528687 12.76495422 24.1834082 12.77374268 25.35601807 C12.7728363 26.5904364 12.77192993 27.82485474 12.77099609 29.09667969 C12.77771332 30.40797852 12.78443054 31.71927734 12.79135132 33.0703125 C12.80897156 36.6573099 12.81370508 40.24421178 12.81498289 43.83124828 C12.81640759 46.07633384 12.82068328 48.32139535 12.82597733 50.56647491 C12.84446622 58.41054314 12.85264959 66.25454352 12.85107422 74.09863281 C12.84987393 81.39114484 12.87095681 88.68336037 12.90256155 95.97579741 C12.92878527 102.2520453 12.93943893 108.52819672 12.9381634 114.80449891 C12.93765544 118.54620184 12.94324541 122.28764126 12.9645195 126.02928925 C12.98763206 130.20820598 12.9783439 134.38646628 12.96630859 138.56542969 C12.97754761 139.7917511 12.98878662 141.01807251 13.00036621 142.28155518 C12.94279961 150.16893937 12.23454837 157.92968756 6.73041344 164.02920151 C0.88054531 169.43948333 -4.67562904 170.55637008 -12.51171875 170.40234375 C-18.48705852 169.78152923 -22.09547026 167.48225894 -26.33203125 163.33984375 C-31.73181472 155.31730831 -31.95814539 148.27419071 -31.92358398 138.84008789 C-31.93044724 137.52689072 -31.93731049 136.21369354 -31.94438171 134.86070251 C-31.96224295 131.27797 -31.96115816 127.69548334 -31.95543933 124.11271977 C-31.95233728 121.11335776 -31.95845116 118.11404228 -31.96447808 115.11468691 C-31.97849854 108.03483286 -31.9769827 100.95509954 -31.96557617 93.87524414 C-31.95409674 86.58947186 -31.96817309 79.30406776 -31.99497265 72.01834399 C-32.01717633 65.74545623 -32.02375657 59.47268366 -32.01789623 53.19975942 C-32.01453664 49.46092908 -32.01687481 45.72233469 -32.03414726 41.98353767 C-32.05258086 37.81178837 -32.03838152 33.64074899 -32.02124023 29.46899414 C-32.0309082 28.24221954 -32.04057617 27.01544495 -32.05053711 25.75149536 C-31.98407548 18.01237438 -31.27354325 11.04678381 -25.74024105 5.21437168 C-18.49048129 -1.36682361 -9.52145719 -3.43953415 0 0 Z " fill="#000000" transform="translate(265.51953125,128.91015625)"/>
<path d="M0 0 C5.65842186 3.35748683 9.01834623 8.14105438 11.0546875 14.30859375 C12.61328751 20.65089687 11.70385218 25.48921562 8.90234375 31.26171875 C5.99765338 35.84316916 1.60911022 39.38856832 -3.4375 41.375 C-10.81953986 42.2386623 -17.72157656 42.50233474 -23.82421875 37.86328125 C-29.33731269 32.77735197 -32.05274241 28.22257589 -32.8125 20.625 C-32.62001392 14.71454509 -30.68736936 8.96608178 -26.7890625 4.4765625 C-19.38125262 -2.15488303 -9.29654974 -4.24177174 0 0 Z " fill="#000000" transform="translate(266.4375,342.625)"/>
</svg>
