<?xml version="1.0" standalone="no"?>
<!DOCTYPE svg PUBLIC "-//W3C//DTD SVG 20010904//EN"
 "http://www.w3.org/TR/2001/REC-SVG-20010904/DTD/svg10.dtd">
<svg version="1.0" xmlns="http://www.w3.org/2000/svg"
 width="512.000000pt" height="512.000000pt" viewBox="0 0 512.000000 512.000000"
 preserveAspectRatio="xMidYMid meet">

<g transform="translate(0.000000,512.000000) scale(0.100000,-0.100000)"
fill="#000000" stroke="none">
<path d="M1220 4785 c-153 -34 -315 -147 -398 -278 -53 -83 -62 -112 -262
-779 l-173 -577 -66 -38 c-132 -76 -247 -220 -294 -368 -22 -70 -22 -73 -22
-810 l0 -740 23 -45 c12 -25 35 -62 51 -81 37 -44 131 -95 193 -104 l46 -7 4
-202 c3 -183 5 -205 26 -246 35 -71 75 -114 144 -151 l63 -34 245 0 245 0 63
34 c70 38 100 69 140 145 26 50 27 57 30 254 l4 202 1279 0 1279 0 0 -184 c0
-142 4 -195 16 -234 25 -76 79 -140 154 -181 l65 -36 245 0 245 0 63 34 c70
38 100 69 140 145 26 50 27 57 30 252 l4 202 46 7 c59 9 155 59 188 98 14 16
37 53 52 81 l27 51 0 740 c0 737 0 740 -22 810 -47 148 -162 292 -294 368
l-66 38 -173 577 c-95 317 -184 609 -198 647 -65 184 -209 325 -398 392 l-79
28 -1300 2 c-1085 1 -1311 -1 -1365 -12z m2686 -1105 c79 -261 143 -476 144
-477 0 -2 -671 -3 -1491 -3 -1228 0 -1490 2 -1486 13 3 7 67 220 142 473 76
252 140 462 142 467 2 4 545 6 1205 5 l1201 -3 143 -475z m-2495 -1309 c69
-33 112 -74 150 -143 31 -58 34 -70 34 -148 0 -78 -3 -90 -34 -148 -38 -70
-70 -100 -145 -140 -43 -22 -64 -26 -136 -26 -78 -1 -90 2 -148 33 -69 37
-109 80 -144 151 -32 66 -31 196 2 265 42 86 123 152 215 176 49 13 158 2 206
-20z m2560 0 c69 -33 112 -74 150 -143 31 -58 34 -70 34 -148 0 -78 -3 -90
-34 -148 -38 -70 -70 -100 -145 -140 -43 -22 -64 -26 -136 -26 -78 -1 -90 2
-148 33 -69 37 -109 80 -144 151 -32 66 -31 196 2 265 42 86 123 152 215 176
49 13 158 2 206 -20z"/>
</g>
</svg>
