<?xml version="1.0" standalone="no"?>
<!DOCTYPE svg PUBLIC "-//W3C//DTD SVG 20010904//EN"
 "http://www.w3.org/TR/2001/REC-SVG-20010904/DTD/svg10.dtd">
<svg version="1.0" xmlns="http://www.w3.org/2000/svg"
 width="512.000000pt" height="512.000000pt" viewBox="0 0 512.000000 512.000000"
 preserveAspectRatio="xMidYMid meet">

<g transform="translate(0.000000,512.000000) scale(0.100000,-0.100000)"
fill="#000000" stroke="none">
<path d="M509 4826 c-98 -40 -156 -93 -207 -189 l-27 -52 0 -420 0 -420 32
-66 c39 -79 102 -140 181 -177 l57 -27 2015 0 2015 0 62 29 c76 35 144 104
181 184 l27 57 0 415 0 415 -26 56 c-47 100 -123 168 -223 202 -46 16 -210 17
-2040 17 l-1991 0 -56 -24z m749 -471 c78 -33 126 -106 126 -195 1 -181 -214
-277 -351 -157 -115 101 -89 276 52 350 39 21 125 21 173 2z m776 -15 c20 -14
49 -43 64 -64 24 -35 27 -49 27 -116 0 -67 -3 -81 -27 -116 -15 -21 -44 -50
-65 -64 -31 -21 -48 -25 -113 -25 -65 0 -82 4 -113 25 -21 14 -50 43 -65 64
-24 35 -27 49 -27 117 0 70 3 81 30 120 45 64 104 91 186 87 50 -3 75 -10 103
-28z m2212 -46 c53 -39 69 -71 69 -134 0 -63 -16 -95 -69 -134 -26 -20 -42
-21 -384 -24 -234 -2 -370 1 -394 8 -101 29 -140 168 -71 251 50 58 53 59 455
56 353 -2 368 -3 394 -23z"/>
<path d="M509 3226 c-98 -40 -156 -93 -207 -189 l-27 -52 0 -420 0 -420 32
-66 c39 -79 102 -140 181 -177 l57 -27 2015 0 2015 0 62 29 c76 35 144 104
181 184 l27 57 0 415 0 415 -26 56 c-47 100 -123 168 -223 202 -46 16 -210 17
-2040 17 l-1991 0 -56 -24z m749 -471 c78 -33 126 -106 126 -195 1 -181 -214
-277 -351 -157 -115 101 -89 276 52 350 39 21 125 21 173 2z m776 -15 c20 -14
49 -43 64 -64 24 -35 27 -49 27 -116 0 -67 -3 -81 -27 -116 -15 -21 -44 -50
-65 -64 -31 -21 -48 -25 -113 -25 -65 0 -82 4 -113 25 -21 14 -50 43 -65 64
-24 35 -27 49 -27 117 0 70 3 81 30 120 45 64 104 91 186 87 50 -3 75 -10 103
-28z m2212 -46 c53 -39 69 -71 69 -134 0 -63 -16 -95 -69 -134 -26 -20 -42
-21 -384 -24 -234 -2 -370 1 -394 8 -101 29 -140 168 -71 251 50 58 53 59 455
56 353 -2 368 -3 394 -23z"/>
<path d="M509 1626 c-98 -40 -156 -93 -207 -189 l-27 -52 0 -420 0 -420 32
-66 c39 -79 102 -140 181 -177 l57 -27 2015 0 2015 0 62 29 c76 35 144 104
181 184 l27 57 0 415 0 415 -26 56 c-47 100 -123 168 -223 202 -46 16 -210 17
-2040 17 l-1991 0 -56 -24z m749 -471 c78 -33 126 -106 126 -195 1 -181 -214
-277 -351 -157 -115 101 -89 276 52 350 39 21 125 21 173 2z m776 -15 c20 -14
49 -43 64 -64 24 -35 27 -49 27 -116 0 -67 -3 -81 -27 -116 -15 -21 -44 -50
-65 -64 -31 -21 -48 -25 -113 -25 -65 0 -82 4 -113 25 -21 14 -50 43 -65 64
-24 35 -27 49 -27 117 0 70 3 81 30 120 45 64 104 91 186 87 50 -3 75 -10 103
-28z m2212 -46 c53 -39 69 -71 69 -134 0 -63 -16 -95 -69 -134 -26 -20 -42
-21 -384 -24 -234 -2 -370 1 -394 8 -101 29 -140 168 -71 251 50 58 53 59 455
56 353 -2 368 -3 394 -23z"/>
</g>
</svg>
