<?xml version="1.0" standalone="no"?>
<!DOCTYPE svg PUBLIC "-//W3C//DTD SVG 20010904//EN"
 "http://www.w3.org/TR/2001/REC-SVG-20010904/DTD/svg10.dtd">
<svg version="1.0" xmlns="http://www.w3.org/2000/svg"
 width="512.000000pt" height="512.000000pt" viewBox="0 0 512.000000 512.000000"
 preserveAspectRatio="xMidYMid meet">

<g transform="translate(0.000000,512.000000) scale(0.100000,-0.100000)"
fill="#000000" stroke="none">
<path d="M1161 4695 c-73 -196 -81 -516 -16 -672 12 -28 11 -33 -6 -49 -11
-10 -42 -48 -68 -84 -147 -200 -211 -407 -211 -684 0 -799 383 -1244 1170
-1361 63 -10 121 -19 128 -21 8 -2 -5 -25 -34 -61 -57 -69 -99 -159 -121 -255
-15 -69 -16 -70 -62 -90 -25 -11 -73 -26 -106 -33 -289 -67 -507 20 -675 270
-124 184 -252 278 -415 305 -85 14 -175 -13 -175 -51 0 -18 59 -74 125 -119
130 -88 204 -185 310 -405 62 -129 74 -146 149 -220 59 -59 101 -90 157 -118
156 -76 336 -101 543 -73 66 8 122 13 125 10 12 -11 13 -478 2 -514 -13 -44
-37 -67 -88 -85 -32 -12 61 -13 627 -9 745 5 1032 13 985 25 -38 10 -73 42
-80 72 -2 12 -6 238 -8 502 -3 453 -4 484 -24 557 -27 95 -62 167 -119 239
l-43 56 92 12 c198 25 443 94 581 163 359 179 570 499 627 953 19 149 16 392
-5 498 -34 176 -110 341 -220 476 l-54 68 19 69 c52 186 35 462 -40 658 l-12
29 -97 -5 c-76 -4 -120 -13 -205 -41 -117 -40 -299 -128 -415 -203 l-73 -46
-122 26 c-188 41 -316 56 -517 63 -261 8 -466 -13 -760 -78 l-56 -12 -59 37
c-251 161 -496 256 -662 256 l-72 0 -20 -55z"/>
</g>
</svg>
