<?xml version="1.0" standalone="no"?>
<!DOCTYPE svg PUBLIC "-//W3C//DTD SVG 20010904//EN"
 "http://www.w3.org/TR/2001/REC-SVG-20010904/DTD/svg10.dtd">
<svg version="1.0" xmlns="http://www.w3.org/2000/svg"
 width="512.000000pt" height="512.000000pt" viewBox="0 0 512.000000 512.000000"
 preserveAspectRatio="xMidYMid meet">

<g transform="translate(0.000000,512.000000) scale(0.100000,-0.100000)"
fill="#000000" stroke="none">
<path d="M4057 4899 c-174 -25 -325 -165 -372 -344 -54 -209 51 -427 252 -523
69 -32 88 -37 173 -40 78 -3 106 0 159 18 119 40 214 119 267 222 173 338
-103 722 -479 667z"/>
<path d="M2040 4060 c0 -7 198 -10 575 -10 377 0 575 3 575 10 0 7 -198 10
-575 10 -377 0 -575 -3 -575 -10z"/>
<path d="M1090 3975 c0 -13 98 -15 820 -15 722 0 820 2 820 15 0 13 -98 15
-820 15 -722 0 -820 -2 -820 -15z"/>
<path d="M3721 3930 c-29 -11 -74 -33 -100 -49 -50 -32 -118 -98 -110 -106 3
-3 43 11 88 31 101 44 138 50 195 34 152 -42 206 -230 98 -343 -36 -38 -46
-43 -337 -168 l-250 -107 -14 -69 c-18 -91 -21 -569 -3 -670 15 -88 43 -167
80 -222 15 -22 187 -210 382 -417 195 -207 363 -386 372 -399 12 -15 52 -195
123 -544 57 -286 111 -533 119 -549 22 -42 97 -108 142 -123 63 -21 142 -16
199 13 58 30 85 57 113 113 41 83 41 83 -84 701 -64 318 -124 595 -134 614
-10 19 -144 169 -298 332 l-280 298 -7 177 c-7 166 5 426 22 471 4 9 20 -21
40 -79 38 -105 51 -122 107 -151 61 -31 718 -314 746 -321 44 -11 107 12 144
54 59 65 60 149 3 212 -27 30 -85 59 -357 177 -179 77 -328 144 -332 148 -4 4
-68 186 -143 405 -132 387 -157 449 -206 494 -69 63 -208 82 -318 43z"/>
<path d="M1800 3895 c0 -13 69 -15 576 -15 456 0 575 3 572 13 -4 9 -130 13
-576 15 -504 2 -572 0 -572 -13z"/>
<path d="M3690 3793 c-138 -52 -1622 -701 -1638 -716 -81 -75 -67 -206 27
-261 72 -42 76 -41 746 249 341 147 709 306 818 353 230 98 248 114 255 210 3
47 0 63 -20 92 -45 66 -124 97 -188 73z"/>
<path d="M1185 3500 c-83 -28 -136 -67 -163 -120 -52 -102 -8 -248 122 -402
36 -42 80 -107 98 -143 l34 -66 34 23 c19 13 45 41 57 63 l23 40 -40 35 -40
36 30 46 c17 25 49 58 72 74 38 27 48 29 127 28 76 0 94 -4 151 -32 107 -53
157 -38 147 45 -12 112 -203 302 -365 363 -83 32 -209 36 -287 10z m300 -109
c44 -22 104 -61 133 -87 52 -45 122 -129 122 -145 0 -5 -20 0 -45 11 -177 76
-330 29 -438 -133 l-25 -39 -46 59 c-61 76 -98 153 -104 214 -7 76 26 113 132
151 81 29 171 19 271 -31z"/>
<path d="M1399 2793 c-13 -17 -37 -38 -52 -48 -25 -16 -26 -19 -13 -34 9 -9
33 -71 55 -136 37 -112 58 -207 114 -529 l22 -130 138 -62 c92 -42 139 -59
142 -51 2 7 18 74 35 151 l30 139 -107 191 c-109 194 -212 357 -288 456 -23
30 -44 61 -46 69 -4 10 -12 5 -30 -16z"/>
<path d="M300 2224 c-162 -151 -294 -278 -292 -282 2 -4 33 -40 70 -81 l66
-74 -71 -66 -72 -67 216 -232 217 -233 50 49 c28 26 61 56 74 66 l22 19 73
-77 72 -76 295 276 c162 151 296 279 298 284 3 9 -705 770 -716 770 -4 0 -140
-124 -302 -276z m178 -793 l36 -43 -39 -34 c-22 -18 -43 -30 -46 -26 -3 4 -71
77 -152 163 l-146 156 37 37 37 37 118 -123 c65 -68 134 -143 155 -167z"/>
<path d="M3430 2064 c0 -28 7 -200 16 -383 9 -204 12 -337 6 -344 -108 -137
-554 -732 -568 -757 -27 -51 -26 -171 3 -226 26 -48 82 -101 131 -121 84 -35
217 -6 279 60 63 68 637 834 656 876 17 39 19 62 15 211 l-3 167 -229 244
c-126 134 -246 262 -268 284 l-38 40 0 -51z"/>
</g>
</svg>
