<?xml version="1.0" encoding="UTF-8"?>
<svg version="1.1" xmlns="http://www.w3.org/2000/svg" width="512" height="512">
<path d="M0 0 C0.7676712 -0.00320648 1.5353424 -0.00641296 2.32627636 -0.0097166 C4.90171698 -0.01802586 7.4769256 -0.01208908 10.05237007 -0.00622082 C11.91625819 -0.00924108 13.78014506 -0.01312993 15.64402974 -0.01781338 C20.76856139 -0.0281183 25.89302328 -0.02590521 31.01756072 -0.02163279 C36.54323 -0.01917009 42.06888227 -0.02817406 47.59454536 -0.03567028 C58.4209637 -0.04843202 69.24735725 -0.05020913 80.07378183 -0.04787002 C88.87220083 -0.04608834 97.67061229 -0.04783327 106.46903038 -0.05209446 C108.34604122 -0.05298724 108.34604122 -0.05298724 110.26097146 -0.05389806 C112.80292041 -0.05510979 115.34486936 -0.05632392 117.8868183 -0.05754044 C134.95912743 -0.06532985 152.03143405 -0.06924524 169.10374451 -0.06522369 C169.7713995 -0.06506732 170.43905449 -0.06491094 171.12694146 -0.06474983 C174.51089308 -0.06394404 177.89484469 -0.06309827 181.2787963 -0.06223653 C182.28689397 -0.06197989 182.28689397 -0.06197989 183.31535724 -0.06171808 C184.67443622 -0.06137142 186.0335152 -0.06102289 187.39259418 -0.06067249 C208.5403619 -0.05531516 229.68808792 -0.06324586 250.83584785 -0.08170605 C274.59504421 -0.1024215 298.35421835 -0.11311854 322.11342633 -0.10913056 C334.69363315 -0.10721639 347.27380199 -0.10972706 359.854002 -0.1238451 C370.56362879 -0.13574209 381.2731942 -0.1371827 391.98282181 -0.12505493 C397.44806362 -0.11915443 402.91319309 -0.11809918 408.37842751 -0.13005733 C413.38098881 -0.14087604 418.38334343 -0.13786066 423.38589491 -0.12379565 C425.19607461 -0.12113764 427.00627031 -0.12354974 428.81643437 -0.13153151 C431.27731693 -0.14162979 433.73747995 -0.13322251 436.19833374 -0.12025452 C436.90076669 -0.12756386 437.60319963 -0.13487321 438.32691842 -0.14240405 C443.81264538 -0.08250258 449.64479258 0.86828827 453.79497217 4.70638094 C458.29381371 10.00482352 458.3667141 13.73482314 458.34526253 20.45445728 C458.34654416 21.90259809 458.34654416 21.90259809 458.34785169 23.37999427 C458.34950701 26.63521098 458.34398426 29.89037687 458.3385334 33.14558887 C458.33825151 35.47097745 458.33840929 37.79636612 458.33897591 40.12175465 C458.33926382 46.45202058 458.33336801 52.78226772 458.32640195 59.11252928 C458.32079856 65.05259005 458.31977987 70.99265007 458.31875008 76.93271314 C458.31655998 88.70028986 458.30990103 100.46785966 458.30044746 112.23543262 C458.29127226 123.66837498 458.28419195 135.10131546 458.27993965 146.53426075 C458.27954557 147.59086901 458.27954557 147.59086901 458.27914352 148.6688229 C458.27783851 152.20252243 458.27657479 155.73622198 458.27533162 159.26992154 C458.26496032 188.59811069 458.24726895 217.92629307 458.22500801 247.25447559 C457.09999229 246.2953113 455.9756996 245.3352989 454.85171413 244.37492752 C454.22554646 243.84041141 453.59937878 243.3058953 452.95423633 242.75518173 C451.0762623 241.12538703 449.29965729 239.43131743 447.55972481 237.65511036 C446.93184563 237.01747257 446.30396645 236.37983479 445.65706062 235.72287464 C445.00272545 235.05396702 444.34839027 234.38505939 443.67422676 233.69588184 C442.23897726 232.24311404 440.80342077 230.79064946 439.36758614 229.33845997 C437.13963762 227.07964598 434.91410707 224.81860808 432.69400215 222.55208302 C414.4632771 203.69659167 414.4632771 203.69659167 389.72500801 196.75447559 C374.89611971 197.40391596 365.46017502 204.65474864 355.50625801 214.81306934 C354.8040815 215.52044743 354.10190498 216.22782551 353.37845039 216.95663929 C351.15575688 219.1969823 348.93992129 221.44394256 346.72500801 223.69197559 C344.509238 225.93555761 342.29194108 228.17757562 340.07156563 230.41660023 C338.69735271 231.80286539 337.3258167 233.19179168 335.95755196 234.58392811 C335.00616341 235.54511303 335.00616341 235.54511303 334.03555489 236.52571583 C333.49120796 237.07831577 332.94686104 237.63091572 332.38601875 238.20026112 C330.22500801 240.25447559 330.22500801 240.25447559 328.5830431 241.52651119 C324.5689448 244.73404728 321.61323371 247.9960006 318.76770061 252.29479307 C310.7926301 264.18769099 301.0746211 274.95727287 286.51821709 277.90065479 C268.63096501 280.5362932 250.24123152 279.79546644 232.21995167 279.35236269 C223.91682745 279.15374292 215.61527182 279.1222043 207.31011228 279.09752738 C192.49627613 279.04897856 177.68711629 278.86954994 162.87564278 278.60701466 C148.52936982 278.35297287 134.18481525 278.16930816 119.83658028 278.07381153 C118.94963681 278.06788876 118.06269335 278.06196599 117.14887282 278.05586374 C113.5828234 278.03229798 110.01677169 278.00913373 106.45071609 277.98652238 C79.17529385 277.81219788 51.89854442 277.57668284 24.62619591 277.12430668 C21.7769668 277.07738195 18.92776745 277.03689142 16.07836151 277.00238132 C12.19157279 276.95482986 8.30541078 276.88400052 4.41902351 276.8103838 C3.29093228 276.79934085 2.16284105 276.7882979 1.00056523 276.77692032 C-6.6563108 276.60237165 -12.88605285 276.01780868 -18.64999199 270.50447559 C-22.92350986 263.96850709 -23.06675591 257.7963603 -23.0356884 250.21007252 C-23.03951395 249.21405486 -23.04333949 248.2180372 -23.04728097 247.19183719 C-23.0575794 243.86256493 -23.05362477 240.53346616 -23.04965019 237.20418262 C-23.05399841 234.81384084 -23.05918192 232.42350044 -23.06513786 230.03316212 C-23.07713727 224.21909123 -23.07968066 218.40507412 -23.0773376 212.59099235 C-23.07555233 207.86344698 -23.07730855 203.13591562 -23.08156204 198.40837193 C-23.08215723 197.73473072 -23.08275242 197.06108951 -23.08336565 196.36703493 C-23.08457744 194.99838925 -23.08579157 193.62974357 -23.08700802 192.26109789 C-23.09787712 179.43427175 -23.0957241 166.60747191 -23.08962318 153.78064428 C-23.08445497 142.05685722 -23.095708 130.33315327 -23.1147214 118.60938264 C-23.13411278 106.55978749 -23.14235349 94.51023162 -23.13859814 82.46062076 C-23.13668802 75.70035083 -23.13915519 68.94015162 -23.15331268 62.17989445 C-23.16588875 55.82198776 -23.16394881 49.4642474 -23.15090179 43.10634327 C-23.148536 40.77513415 -23.15127079 38.44391333 -23.15952492 36.11271763 C-23.16999348 32.92590113 -23.16189035 29.73964259 -23.14921379 26.55284595 C-23.15658808 25.63444498 -23.16396236 24.71604401 -23.17156011 23.7698127 C-23.11950472 17.53208061 -22.58354824 10.66755484 -18.46468621 5.66213524 C-12.99189184 0.76144928 -7.07505604 -0.04398912 0 0 Z M53.81875801 107.31697559 C43.97610677 119.28255161 41.7598017 132.18082006 43.22500801 147.25447559 C45.5654203 159.65308834 53.33214853 170.60148164 63.53750801 177.91072559 C75.62011476 185.6133874 88.69547582 187.24207268 102.70157051 184.59822559 C115.72426135 180.69478338 126.35238048 171.60517832 132.93594551 159.82869434 C138.56302672 148.59158368 139.27540173 134.80783655 135.66250801 122.75447559 C130.28166995 109.05607447 120.15712824 99.3471971 106.99453926 93.21541309 C87.84643256 86.16258205 67.4228172 92.94287532 53.81875801 107.31697559 Z M181.81875801 107.31697559 C171.97610677 119.28255161 169.7598017 132.18082006 171.22500801 147.25447559 C173.5654203 159.65308834 181.33214853 170.60148164 191.53750801 177.91072559 C203.62011476 185.6133874 216.69547582 187.24207268 230.70157051 184.59822559 C243.72426135 180.69478338 254.35238048 171.60517832 260.93594551 159.82869434 C266.56302672 148.59158368 267.27540173 134.80783655 263.66250801 122.75447559 C258.28166995 109.05607447 248.15712824 99.3471971 234.99453926 93.21541309 C215.84643256 86.16258205 195.4228172 92.94287532 181.81875801 107.31697559 Z M309.81875801 107.31697559 C299.97610677 119.28255161 297.7598017 132.18082006 299.22500801 147.25447559 C301.5654203 159.65308834 309.33214853 170.60148164 319.53750801 177.91072559 C331.62011476 185.6133874 344.69547582 187.24207268 358.70157051 184.59822559 C371.72426135 180.69478338 382.35238048 171.60517832 388.93594551 159.82869434 C394.56302672 148.59158368 395.27540173 134.80783655 391.66250801 122.75447559 C386.28166995 109.05607447 376.15712824 99.3471971 362.99453926 93.21541309 C343.84643256 86.16258205 323.4228172 92.94287532 309.81875801 107.31697559 Z " fill="#000000" transform="translate(37.77499198913574,43.745524406433105)"/>
<path d="M0 0 C0.90363281 -0.02835937 1.80726563 -0.05671875 2.73828125 -0.0859375 C9.13493911 0.91380505 13.73857625 5.04975394 18.19213867 9.49145508 C18.9448127 10.23624367 18.9448127 10.23624367 19.71269226 10.99607849 C21.35118856 12.62148967 22.97860251 14.25748601 24.60546875 15.89453125 C25.75129732 17.03833579 26.89757064 18.18169493 28.04426575 19.32463074 C30.4386316 21.71458877 32.82752627 24.10984925 35.21264648 26.5090332 C38.25876286 29.5722403 41.31815157 32.62177956 44.38178539 35.66745472 C46.74907431 38.02386412 49.1091236 40.38742054 51.46709633 42.75314903 C52.59194565 43.87998884 53.71899799 45.00463424 54.84834862 46.12696266 C56.42998481 47.70091558 58.0015818 49.28428154 59.57104492 50.87036133 C60.46482346 51.76652664 61.35860199 52.66269196 62.27946472 53.58601379 C66.25355548 58.18880529 69.56256545 63.12827273 69.6875 69.375 C67.90474896 81.36805246 56.36044039 89.85177753 48.22387695 97.98388672 C47.32511841 98.88600388 46.42635986 99.78812103 45.50036621 100.71757507 C43.06701369 103.1596499 40.63053406 105.59858001 38.19313836 108.03661871 C36.66630297 109.56417023 35.14018398 111.09243382 33.61430931 112.62094498 C28.2801331 117.96432861 22.94342558 123.30516854 17.60424805 128.64355469 C12.64231545 133.60488454 7.6860122 138.57178973 2.73226005 143.54128635 C-1.53956283 147.82619787 -5.8152456 152.10723183 -10.09393722 156.38528454 C-12.64162004 158.93271319 -15.1877478 161.48164855 -17.72998619 164.03451157 C-20.56009091 166.87612561 -23.39818117 169.70963262 -26.23706055 172.54248047 C-27.07096817 173.3820076 -27.90487579 174.22153473 -28.76405334 175.08650208 C-34.83793084 181.12762283 -39.9419786 185.30978992 -48.3684082 187.55737305 C-49.04733124 187.7416687 -49.72625427 187.92596436 -50.42575073 188.11584473 C-52.65214758 188.71711511 -54.88242092 189.30224708 -57.11328125 189.88671875 C-58.67519328 190.30380308 -60.23689158 190.72168858 -61.79838562 191.14033508 C-65.0655197 192.01372181 -68.33454316 192.87949707 -71.60522461 193.73950195 C-75.77760019 194.83692894 -79.94562741 195.94989628 -84.11243916 197.06824017 C-87.33602618 197.93215507 -90.56136999 198.78934921 -93.78731346 199.64441872 C-95.32379503 200.05219312 -96.85983765 200.46162545 -98.39541054 200.87280846 C-120.19676285 206.69608443 -120.19676285 206.69608443 -127.5234375 203.44140625 C-131.87181346 200.84947036 -134.29135364 197.31702721 -135.640625 192.52734375 C-136.97625726 185.92508578 -134.93728276 179.9147345 -133.1875 173.5625 C-132.82636718 172.19660699 -132.46679255 170.83030122 -132.10864258 169.46362305 C-131.31376014 166.44965379 -130.50433638 163.44004479 -129.68505859 160.43261719 C-128.43848964 155.85418559 -127.22075754 151.26844056 -126.00683594 146.68125916 C-124.94406269 142.67203549 -123.87210415 138.66531368 -122.79718018 134.65933228 C-122.2673502 132.68416297 -121.73914157 130.70855802 -121.21258545 128.73251343 C-120.46620284 125.94051249 -119.70927159 123.15158757 -118.94921875 120.36328125 C-118.72756546 119.52813995 -118.50591217 118.69299866 -118.27754211 117.83255005 C-118.06308945 117.05418793 -117.84863678 116.27582581 -117.62768555 115.47387695 C-117.35410469 114.46282646 -117.35410469 114.46282646 -117.07499695 113.43135071 C-115.33936504 108.75058719 -112.52413762 105.33614142 -109.03041077 101.83894348 C-108.15699539 100.95988846 -107.28358002 100.08083344 -106.38369751 99.17514038 C-105.41874058 98.2140715 -104.45367974 97.25310695 -103.48852539 96.29223633 C-102.46954071 95.27053981 -101.45098161 94.24841869 -100.43281555 93.22590637 C-97.67301515 90.45700384 -94.90694453 87.69444635 -92.13941884 84.93326783 C-89.24216449 82.04108334 -86.3498002 79.14401512 -83.45664978 76.24772644 C-78.59879711 71.38623759 -73.736748 66.52897561 -68.87231445 61.67407227 C-63.24894508 56.06159288 -57.63282517 50.44193659 -52.02040488 44.81850988 C-47.19937415 39.98840369 -42.37445741 35.16220535 -37.54627031 30.33925265 C-34.66347006 27.45956988 -31.78203685 24.57855418 -28.90410042 21.69400978 C-26.19916971 18.98330228 -23.4893942 16.27753318 -20.7758007 13.57549858 C-19.78078811 12.58313051 -18.78747358 11.58905649 -17.79598999 10.59316254 C-16.44247806 9.23418597 -15.08219143 7.8819669 -13.72157288 6.53010559 C-12.96222474 5.77151151 -12.20287661 5.01291742 -11.42051792 4.23133564 C-7.73175394 0.98298372 -4.88445439 0.06908705 0 0 Z " fill="#000000" transform="translate(427.3125,262.625)"/>
<path d="M0 0 C4.8846525 2.26787438 7.73212562 5.1153475 10 10 C10.75381535 15.5997712 10.77303575 20.33499991 8.375 25.5 C3.80134327 30.3143755 0.6912538 32.25156236 -6 32.5 C-11.11720994 32.31000458 -14.18069828 31.62833663 -18 28 C-21.46909068 23.78083567 -22.90714902 20.47820753 -23 15 C-22.12471615 10.11019313 -20.78888497 6.26612549 -16.9375 3 C-11.41952599 -0.75691847 -6.57966937 -0.61146142 0 0 Z " fill="#000000" transform="translate(390,166)"/>
<path d="M0 0 C4.8846525 2.26787438 7.73212562 5.1153475 10 10 C10.75381535 15.5997712 10.77303575 20.33499991 8.375 25.5 C3.80134327 30.3143755 0.6912538 32.25156236 -6 32.5 C-11.11720994 32.31000458 -14.18069828 31.62833663 -18 28 C-21.46909068 23.78083567 -22.90714902 20.47820753 -23 15 C-22.12471615 10.11019313 -20.78888497 6.26612549 -16.9375 3 C-11.41952599 -0.75691847 -6.57966937 -0.61146142 0 0 Z " fill="#000000" transform="translate(262,166)"/>
<path d="M0 0 C4.8846525 2.26787438 7.73212562 5.1153475 10 10 C10.75381535 15.5997712 10.77303575 20.33499991 8.375 25.5 C3.80134327 30.3143755 0.6912538 32.25156236 -6 32.5 C-11.11720994 32.31000458 -14.18069828 31.62833663 -18 28 C-21.46909068 23.78083567 -22.90714902 20.47820753 -23 15 C-22.12471615 10.11019313 -20.78888497 6.26612549 -16.9375 3 C-11.41952599 -0.75691847 -6.57966937 -0.61146142 0 0 Z " fill="#000000" transform="translate(134,166)"/>
</svg>
