<?xml version="1.0" standalone="no"?>
<!DOCTYPE svg PUBLIC "-//W3C//DTD SVG 20010904//EN"
 "http://www.w3.org/TR/2001/REC-SVG-20010904/DTD/svg10.dtd">
<svg version="1.0" xmlns="http://www.w3.org/2000/svg"
 width="512.000000pt" height="512.000000pt" viewBox="0 0 512.000000 512.000000"
 preserveAspectRatio="xMidYMid meet">

<g transform="translate(0.000000,512.000000) scale(0.100000,-0.100000)"
fill="#000000" stroke="none">
<path d="M1871 4799 c-128 -25 -257 -125 -311 -241 -37 -79 -50 -146 -50 -259
l0 -89 -626 0 c-497 0 -625 -3 -622 -12 3 -7 132 -395 287 -861 201 -601 290
-856 308 -877 13 -16 41 -34 61 -40 23 -6 204 -10 465 -10 l427 0 0 90 c0 112
20 159 80 190 38 19 58 20 670 20 612 0 632 -1 670 -20 60 -31 80 -78 80 -190
l0 -90 428 0 c260 0 441 4 464 10 20 6 48 24 61 40 18 21 107 276 308 877 155
466 284 854 287 861 3 9 -125 12 -622 12 l-626 0 0 89 c0 48 -5 112 -10 142
-34 180 -179 325 -359 359 -66 12 -1306 12 -1370 -1z m1359 -309 c60 -31 80
-78 80 -190 l0 -90 -750 0 -750 0 0 90 c0 110 20 159 78 189 36 19 60 20 670
21 615 0 634 -1 672 -20z"/>
<path d="M1 2379 c-1 -1081 3 -1665 9 -1700 34 -180 179 -325 359 -359 74 -14
4308 -14 4382 0 180 34 325 179 359 359 6 35 10 619 9 1700 l-1 1646 -272
-815 c-150 -448 -283 -835 -296 -860 -32 -63 -121 -152 -184 -184 -107 -54
-124 -56 -608 -56 l-448 0 0 -90 c0 -112 -20 -159 -80 -190 -38 -19 -58 -20
-670 -20 -612 0 -632 1 -670 20 -60 31 -80 78 -80 190 l0 90 -447 0 c-485 0
-502 2 -609 56 -63 32 -152 121 -184 184 -13 25 -146 412 -296 860 l-272 815
-1 -1646z"/>
<path d="M2110 2260 l0 -150 450 0 450 0 0 150 0 150 -450 0 -450 0 0 -150z"/>
</g>
</svg>
