<?xml version="1.0" encoding="UTF-8"?>
<svg version="1.1" xmlns="http://www.w3.org/2000/svg" width="512" height="512">
<path d="M0 0 C117.48 0 234.96 0 356 0 C353.7022176 28.72227999 353.7022176 28.72227999 352.70996094 39.10717773 C352.53800516 40.93054012 352.53800516 40.93054012 352.36257553 42.79073811 C352.05302703 46.06906799 351.74189743 49.34724262 351.42998314 52.62534809 C351.09055542 56.19690518 350.75326969 59.76866476 350.41564941 63.34039307 C349.68215912 71.09566189 348.9459377 78.85066986 348.20906067 86.60561752 C347.74798647 91.45803891 347.28746158 96.31051233 346.82702637 101.16299438 C345.54839087 114.637288 344.26906091 128.11151526 342.98712158 141.585495 C342.90560183 142.44233063 342.82408208 143.29916626 342.74009204 144.1819666 C342.65840061 145.04059967 342.57670919 145.89923275 342.49254227 146.783885 C342.32705825 148.52324093 342.16157541 150.26259697 341.99609375 152.00195312 C341.91401216 152.86469554 341.83193057 153.72743795 341.74736166 154.61632407 C340.4126073 168.64709381 339.08296981 182.67834347 337.75548315 196.70980251 C336.38783033 211.16503159 335.01592628 225.61985207 333.63975906 240.07427311 C332.86899951 248.17090818 332.10005105 256.26770601 331.33581543 264.36495972 C330.68655708 271.24379571 330.03341358 278.12224892 329.37522221 285.00023615 C329.03995172 288.50497284 328.70649524 292.00985657 328.37800598 295.5152359 C328.02150764 299.31894157 327.65618686 303.12177098 327.29003906 306.92456055 C327.13740412 308.5755659 327.13740412 308.5755659 326.98168564 310.25992489 C325.94144352 320.90904167 325.03920694 330.13116723 316.37890625 337.3515625 C312.49512742 340.04405755 309.23339609 341.12282488 304.56703854 341.1398077 C303.65458274 341.14549894 302.74212694 341.15119018 301.80202097 341.15705389 C300.79815224 341.15823376 299.7942835 341.15941364 298.75999451 341.16062927 C297.161897 341.168261 297.161897 341.168261 295.5315147 341.17604691 C291.94345579 341.19180627 288.35541707 341.20030569 284.76733398 341.20874023 C282.20186738 341.21827593 279.63640208 341.22816696 277.07093811 341.23838806 C269.35832656 341.26709425 261.6457122 341.28686037 253.9330667 341.30378041 C251.75406102 341.30857621 249.57505585 341.31355945 247.39605069 341.31858563 C233.86072819 341.34956032 220.32540138 341.37624206 206.79005337 341.39300442 C203.654876 341.39695384 200.5196987 341.40095684 197.38452148 341.4050293 C196.21568929 341.40654184 196.21568929 341.40654184 195.02324433 341.40808494 C182.40743362 341.42508266 169.79181938 341.46618156 157.17610454 341.51705229 C144.21923969 341.56886807 131.26247577 341.59795197 118.3055082 341.6052013 C111.03250954 341.60985886 103.75983249 341.62456018 96.48693657 341.6649456 C89.64226058 341.70290722 82.79814116 341.71022264 75.95337486 341.69693947 C73.44357357 341.69699343 70.933748 341.70729282 68.42403793 341.7286911 C64.99166199 341.75638736 61.56128431 341.74685492 58.12889099 341.72825623 C57.14063731 341.74505115 56.15238363 341.76184608 55.13418287 341.77914995 C47.84910855 341.68081394 42.72170534 339.52733743 37 335 C29.43979019 326.74149534 29.60121236 314.42024357 28.62057495 303.85229492 C28.49635953 302.55884281 28.37214411 301.2653907 28.24416459 299.93274307 C27.901983 296.3681333 27.56622712 292.80294394 27.23157907 289.23762012 C26.86864581 285.38323819 26.49967873 281.52943321 26.13146973 277.67555237 C25.41226541 270.13810265 24.69854213 262.6001436 23.98663293 255.06200176 C23.15748404 246.28499266 22.32260261 237.50853169 21.4874201 228.732095 C19.99805304 213.07943789 18.51345528 197.42633221 17.03173828 181.77294922 C15.59325471 166.57638174 14.152051 151.38007585 12.70751953 136.18408203 C12.61843511 135.24693647 12.52935069 134.3097909 12.43756674 133.34424698 C12.07950098 129.57756253 11.72142633 125.81087892 11.36333745 122.04419667 C9.82095675 105.81946692 8.28069626 89.59453579 6.74081832 73.36956835 C6.49124673 70.74008803 6.24163202 68.11061182 5.99200964 65.48113632 C5.11892656 56.28365143 4.24650764 47.08610421 3.37587987 37.88838655 C3.01582208 34.08457558 2.65548299 30.28079187 2.29434586 26.47708321 C1.90367566 22.36209884 1.51447851 18.24697656 1.12545776 14.13183594 C1.01009355 12.9188341 0.89472934 11.70583227 0.77586925 10.45607281 C0.62096655 8.81344573 0.62096655 8.81344573 0.46293449 7.13763428 C0.37288576 6.18691921 0.28283703 5.23620415 0.19005954 4.25667953 C0 2 0 2 0 0 Z M77 33 C76.58547031 35.97669104 76.47464378 38.32306989 76.61964417 41.27622986 C76.64049436 42.10502087 76.66134456 42.93381187 76.68282658 43.78771776 C76.76066234 46.52686737 76.8779997 49.26248542 77 52 C77.07007845 53.87817193 77.1395313 55.75636729 77.20838737 57.63458443 C77.45598414 63.9521323 77.77022145 70.26586293 78.08569336 76.58032227 C78.20268433 78.9904953 78.31927533 81.40068777 78.4355011 83.81089783 C78.71707137 89.62783212 79.00287524 95.44454655 79.29076093 101.26117147 C79.62664569 108.05121339 79.95765295 114.84149064 80.28852767 121.63177823 C80.87920391 133.75023187 81.47435214 145.86846169 82.07202148 157.98657227 C82.65070545 169.71980178 83.22599086 181.4531916 83.79760742 193.18676758 C84.5219812 208.05583334 85.24926959 222.92475365 85.97902538 237.79355623 C86.2107876 242.51741284 86.44152551 247.24131884 86.67191887 251.96524239 C86.98224672 258.32419498 87.29516796 264.68301491 87.610075 271.04174232 C87.72502833 273.37088509 87.83912484 275.70007034 87.95228958 278.02930069 C88.10721999 281.21505473 88.26530759 284.40063731 88.42417908 287.5861969 C88.48984688 288.95882379 88.48984688 288.95882379 88.55684131 290.35918051 C88.77813902 294.73092476 89.05754486 299.09428772 89.43442631 303.45555019 C89.50319038 304.25345201 89.57195446 305.05135383 89.6428023 305.87343448 C90.2095993 309.24784298 91.33588887 310.89675437 94 313 C98.15769884 313.75594524 100.14359818 313.54113097 103.72473145 311.27833557 C107.34201692 306.06634615 106.35100583 301.08494372 105.96679688 294.92163086 C105.8984053 293.51587274 105.83247353 292.10999325 105.76873016 290.70401669 C105.62100515 287.54837384 105.45694069 284.3940855 105.28231812 281.23981857 C104.97687788 275.67532203 104.72214972 270.10894934 104.47094727 264.54177856 C103.91423757 252.32006538 103.31469044 240.10062068 102.71031761 227.88118482 C102.40586726 221.71409387 102.10456795 215.54684885 101.80285645 209.37962341 C101.29704919 199.04945721 100.78915866 188.71939524 100.27978516 178.3894043 C99.62821484 165.17550334 98.98005612 151.96143735 98.33298492 138.74731541 C97.77261135 127.30404422 97.21078427 115.86084447 96.6486721 104.41765857 C96.46976527 100.77458014 96.29103439 97.1314931 96.11231995 93.48840523 C95.8307886 87.75148472 95.54834764 82.01460963 95.26523018 76.27776718 C95.16216522 74.1869575 95.05936884 72.09613455 94.95687675 70.00529671 C94.90886484 69.02624304 94.86085293 68.04718937 94.81138611 67.03846741 C94.76492699 66.08856678 94.71846786 65.13866615 94.67060089 64.15998065 C94.57909226 62.3300334 94.48439689 60.50024215 94.38619232 58.67064202 C94.16094308 54.46889671 93.97305493 50.27491346 93.88490295 46.06788445 C93.86071305 45.29348296 93.83652314 44.51908148 93.81160021 43.72121328 C93.74826364 41.65741419 93.70722896 39.59296342 93.66809845 37.5285635 C92.79277315 32.9055309 91.34572002 31.26144203 88 28 C82.53457793 26.74750744 80.32027591 28.77297461 77 33 Z M171 32 C169.80706558 34.38586883 169.87047509 35.84770844 169.86298561 38.51128864 C169.85791107 39.46663763 169.85283653 40.42198662 169.84760821 41.40628558 C169.84711045 42.46316914 169.84661269 43.52005269 169.84609985 44.60896301 C169.8417176 45.72603738 169.83733535 46.84311175 169.8328203 47.99403685 C169.81939291 51.76270916 169.81324464 55.53135806 169.80712891 59.30004883 C169.79923114 61.99170612 169.79096779 64.68336038 169.78234863 67.37501526 C169.75781329 75.47067016 169.7431964 83.56633124 169.73028857 91.66201189 C169.72657764 93.94770387 169.72260434 96.23339523 169.7185359 98.5190866 C169.69330186 112.70628267 169.67124401 126.89347968 169.65880775 141.08069324 C169.65587796 144.367679 169.65291631 147.65466472 169.64990234 150.94165039 C169.64915629 151.75863628 169.64841024 152.57562218 169.64764158 153.41736522 C169.63498308 166.65737205 169.60175398 179.89724474 169.56010051 193.13718883 C169.51770717 206.7234163 169.49411579 220.30957503 169.48888719 233.89586848 C169.48547025 241.52693634 169.47368187 249.15779452 169.44078445 256.78879738 C169.41281846 263.2866114 169.4017693 269.78417277 169.41297992 276.2820423 C169.41817552 279.5982686 169.41251031 282.91385324 169.39051437 286.23002625 C169.36796947 289.82382616 169.37605109 293.41628127 169.39199829 297.01008606 C169.37117516 298.58537314 169.37117516 298.58537314 169.34993136 300.1924842 C169.40191538 304.9285644 169.44603836 307.2468659 172.31534386 311.14780712 C175.8568778 313.59117551 177.78595357 313.76619026 182 313 C184.54486187 310.84175715 185.82723516 309.06776749 186.36612999 305.73714542 C186.5215142 302.81517809 186.53758423 299.91839938 186.5146637 296.99230957 C186.52160922 295.86858838 186.52855475 294.74486718 186.53571075 293.58709383 C186.55403796 289.81372129 186.54370002 286.04097338 186.53344727 282.26757812 C186.53830836 279.56561227 186.54910909 276.86367715 186.55955505 274.16172791 C186.58120225 267.57999569 186.58106646 260.99843633 186.57292951 254.41668022 C186.56663115 249.06785466 186.56776502 243.71907954 186.57420158 238.37025452 C186.57510324 237.60915124 186.57600489 236.84804796 186.57693387 236.06388095 C186.57878506 234.51774226 186.58064762 232.97160359 186.58252143 231.42546493 C186.59910221 216.92532517 186.59037814 202.4252827 186.57353585 187.92514879 C186.55883652 174.65621375 186.57346999 161.38750511 186.60230602 148.11859924 C186.63169021 134.49609258 186.6426753 120.87369044 186.63312382 107.25115347 C186.63210125 105.71068416 186.63110665 104.17021483 186.6301403 102.62974548 C186.62942572 101.49281775 186.62942572 101.49281775 186.6286967 100.33292177 C186.62653138 94.99014185 186.63634278 89.64746076 186.65091133 84.30470276 C186.66841658 77.79411789 186.66834352 71.28382175 186.64555968 64.77324831 C186.63440062 61.45086246 186.63398489 58.12940525 186.64986038 54.80697441 C186.66570566 51.20672256 186.65091813 47.60787498 186.62818909 44.00769043 C186.64002482 42.95565445 186.65186054 41.90361848 186.66405493 40.81970263 C186.60275226 36.05839428 186.56158807 33.75413011 183.65214443 29.8471756 C181.10395997 27.80071609 181.10395997 27.80071609 177.9375 27.4375 C174.38265419 28.11821515 173.222954 29.20072459 171 32 Z M264 32 C263.0861224 34.74163279 262.81304629 36.64230331 262.67392635 39.48819351 C262.62665116 40.41294959 262.57937597 41.33770567 262.5306682 42.29048467 C262.48299871 43.3080726 262.43532923 44.32566054 262.38621521 45.37408447 C262.3322746 46.45385016 262.278334 47.53361585 262.22275883 48.64610171 C262.04215511 52.28243473 261.86765988 55.91903554 261.69311523 59.55566406 C261.56525119 62.15557094 261.43701775 64.75545968 261.30844116 67.35533142 C260.99556685 73.69581833 260.68723231 80.03651833 260.38040357 86.37730035 C260.02291746 93.76135063 259.66091884 101.14517757 259.29871643 108.52899775 C258.65246449 121.70650106 258.0102652 134.88419875 257.37036133 148.06201172 C256.74952941 160.84698359 256.12596185 173.63181803 255.49926758 186.41650391 C255.46069936 187.20331174 255.42213114 187.99011958 255.38239419 188.80077007 C255.34389196 189.58621951 255.30538974 190.37166895 255.26572078 191.18091989 C255.18819811 192.76240931 255.11067664 194.34389879 255.03315639 195.92538834 C254.99492517 196.70533811 254.95669394 197.48528788 254.91730418 198.2888725 C254.32023436 210.471975 253.72571129 222.65520194 253.13143228 234.83844085 C252.91607214 239.25282164 252.70032841 243.6671835 252.48430448 248.08153185 C252.10937556 255.74318234 251.73618659 263.40491473 251.36492538 271.06674385 C251.24134821 273.6116754 251.11719378 276.15657899 250.9924221 278.70145226 C250.82229588 282.17355367 250.654275 285.64575074 250.48680115 289.11798096 C250.43690094 290.12664601 250.38700073 291.13531106 250.3355884 292.17454171 C249.25928501 302.65601307 249.25928501 302.65601307 253 312 C256.09173752 313.54586876 258.59429552 313.29359521 262 313 C264.52006844 311.56338689 264.52006844 311.56338689 266 309 C267.05369685 303.36213989 267.3039115 297.69730763 267.57582092 291.98060608 C267.6506065 290.49020417 267.6506065 290.49020417 267.7269029 288.96969312 C267.89275565 285.64799249 268.05392641 282.32608169 268.21508789 279.00415039 C268.33319589 276.61843069 268.45157534 274.23272442 268.57020569 271.84703064 C268.85812384 266.04009951 269.14291503 260.23302141 269.42605288 254.42585535 C269.65673623 249.69505824 269.88851608 244.96431609 270.12106133 240.23361015 C270.85409854 225.31906338 271.58321614 210.40432994 272.30942857 195.48944937 C272.87993487 183.77558259 273.45645262 172.06202071 274.0358004 160.34858818 C274.63242877 148.28445541 275.22462069 136.22011182 275.81227487 124.1555385 C276.14153795 117.39747577 276.47250513 110.63950743 276.80821419 103.88176155 C277.12454225 97.50851727 277.43509141 91.13501557 277.74147606 84.76128578 C277.85393449 82.44111603 277.96832457 80.12103884 278.08495331 77.80107498 C278.44945956 70.53557187 278.75517016 63.27050553 279 56 C279.04137486 54.89470341 279.08274972 53.78940683 279.12537837 52.65061641 C279.23920182 49.32552652 279.31532819 46.00164313 279.38035583 42.67527771 C279.41817297 41.66100081 279.45599011 40.6467239 279.49495322 39.60171133 C279.65706092 33.94486141 279.65706092 33.94486141 276.63247776 29.36404514 C271.14931212 26.52288706 268.32024131 27.7997654 264 32 Z " fill="#000000" transform="translate(68,171)"/>
<path d="M0 0 C0.81752778 0.00704862 1.63505556 0.01409723 2.47735691 0.02135944 C11.8303593 0.26082419 20.68571308 2.25423126 29.75170898 4.41674805 C31.55634037 4.83226033 33.36132666 5.24623384 35.16664124 5.6587677 C38.91336287 6.5194674 42.6565314 7.39376856 46.39746094 8.27929688 C51.15851183 9.40582835 55.9254685 10.50441032 60.69515133 11.59374523 C64.40947613 12.44401651 68.12114928 13.30541182 71.83206367 14.17043495 C73.5883056 14.57916944 75.34513306 14.98539749 77.10258293 15.38890648 C93.90411983 19.26377598 109.77493176 23.40512318 119.65405273 38.72924805 C126.04861496 50.20964086 127.093365 63.46808315 124.14086914 76.2109375 C123.86697861 77.40442558 123.86697861 77.40442558 123.58755493 78.62202454 C123.44707733 79.22072861 123.30659973 79.81943268 123.16186523 80.4362793 C124.69496338 80.7800058 124.69496338 80.7800058 126.2590332 81.13067627 C135.91281021 83.29652471 145.56404786 85.47338081 155.2129364 87.66090775 C160.17304583 88.78505969 165.13395514 89.90537895 170.09692383 91.0168457 C174.8906234 92.09055431 179.68191621 93.17445201 184.47174072 94.26531219 C186.29525477 94.67875061 188.11959254 95.08857384 189.94476318 95.49463654 C192.51032138 96.06608298 195.07259115 96.65057038 197.63452148 97.23803711 C198.75554512 97.4829615 198.75554512 97.4829615 199.8992157 97.73283386 C209.58909997 99.99172275 216.4713353 104.13541453 222.16186523 112.4362793 C227.36033337 122.90072813 224.23638385 134.17844533 221.66186523 144.9987793 C221.4362793 145.98168945 221.21069336 146.96459961 220.97827148 147.97729492 C219.3138621 155.13228557 219.3138621 155.13228557 218.16186523 157.4362793 C203.85060453 154.48641874 189.60380235 151.29063399 175.36499023 148.01049805 C173.02893541 147.47372855 170.69284421 146.93711734 168.35671997 146.40065002 C162.68952964 145.09884391 157.02269976 143.79547793 151.35602844 142.49141461 C144.63915846 140.94576668 137.92183849 139.40207872 131.20448184 137.85854745 C127.71898116 137.05763731 124.23349636 136.25665808 120.74801636 135.45565796 C119.6990876 135.21460306 119.6990876 135.21460306 118.62896836 134.96867836 C113.59739267 133.8123236 108.56590392 132.65559107 103.53445435 131.49868774 C81.83842171 126.51009011 60.14082974 121.52831258 38.4425087 116.5496788 C34.15803256 115.56661156 29.87356599 114.58350264 25.58911133 113.6003418 C24.88388376 113.43851229 24.17865618 113.27668278 23.45205808 113.10994935 C12.83092652 110.67261357 2.21033305 108.23294306 -8.40991211 105.79174805 C-9.81349731 105.46912982 -11.21708274 105.1465126 -12.62066841 104.82389641 C-18.18363058 103.54522664 -23.74659203 102.2665538 -29.30951309 100.98770523 C-45.48226819 97.26992977 -61.65689036 93.56050766 -77.83503914 89.86627007 C-87.81641992 87.58699272 -97.79662264 85.30260845 -107.77592278 83.01423836 C-114.64312402 81.43990826 -121.511874 79.87259018 -128.38189697 78.31062222 C-132.53653367 77.36419357 -136.68956653 76.4108819 -140.8421402 75.45544624 C-142.75391136 75.01707386 -144.66635347 74.58161613 -146.57949066 74.14924431 C-149.16151177 73.56532034 -151.74099498 72.97129786 -154.32006836 72.37451172 C-155.45577239 72.12160559 -155.45577239 72.12160559 -156.61441994 71.86359024 C-158.37174861 71.45120199 -160.10844532 70.95246003 -161.83813477 70.4362793 C-163.89557632 66.3213962 -161.282238 60.69965469 -160.25244141 56.38964844 C-159.7840983 54.40956191 -159.34289866 52.42471046 -158.90258789 50.43823242 C-156.55935553 40.54848727 -153.4617492 31.9800118 -144.53735352 26.3659668 C-132.75542233 19.91976077 -118.93883843 24.42696742 -106.70922852 27.3737793 C-104.98508098 27.77859793 -103.26063333 28.18214027 -101.53590393 28.58447266 C-97.03156837 29.63831974 -92.53098883 30.70736862 -88.03118896 31.78039551 C-80.79974117 33.5016425 -73.56234856 35.19778293 -66.32570076 36.89700317 C-63.80367428 37.49125212 -61.28301451 38.09102577 -58.76255798 38.69189453 C-57.22453269 39.05597103 -55.68649331 39.41998798 -54.1484375 39.78393555 C-53.09885864 40.03640549 -53.09885864 40.03640549 -52.02807617 40.29397583 C-49.21687766 40.95604804 -46.73894291 41.4362793 -43.83813477 41.4362793 C-43.61899414 40.46948242 -43.39985352 39.50268555 -43.17407227 38.5065918 C-39.86090277 24.61167417 -34.10347717 13.77518098 -21.90063477 5.6237793 C-14.89303957 1.64034332 -8.03411738 -0.10810199 0 0 Z M-19.29907227 27.3112793 C-23.25687753 32.77586322 -25.11948142 39.78873584 -25.83813477 46.4362793 C-20.18371193 48.48670617 -14.39507815 49.78053431 -8.54370117 51.12597656 C-7.4145076 51.38800873 -6.28531403 51.65004089 -5.12190247 51.92001343 C-1.39518793 52.78390394 2.33250623 53.64347678 6.06030273 54.50268555 C7.99951485 54.95094381 9.93872661 55.3992036 11.87788928 55.84767574 C17.97225879 57.25707888 24.06732621 58.66343358 30.1628418 60.06787109 C36.43605511 61.51330591 42.70808146 62.96380692 48.97954118 64.41682965 C54.37779572 65.66735497 59.77676888 66.91474203 65.17632353 68.15964168 C68.39512737 68.90178669 71.61357124 69.64542949 74.83149338 70.39138985 C78.42299977 71.22344305 82.01565354 72.05035273 85.60864258 72.87597656 C87.19241447 73.24457542 87.19241447 73.24457542 88.80818176 73.62062073 C94.25599982 74.86647805 99.60203582 75.85962253 105.16186523 76.4362793 C107.66389461 68.46106067 109.16358187 58.92397179 105.59936523 51.0612793 C99.49747135 40.98358695 91.30269297 37.6439608 80.19381237 34.86423874 C76.25680887 33.91345206 72.31011586 33.00746086 68.36108398 32.1081543 C66.63525105 31.71060613 64.90948834 31.312753 63.18379211 30.91461182 C59.58017902 30.08543792 55.97516314 29.26272048 52.36914062 28.4440918 C47.77993271 27.40131162 43.19568697 26.33827897 38.61241436 25.26975632 C35.05327391 24.44317979 31.49122663 23.62972167 27.92826271 22.81980133 C26.23819163 22.43358935 24.54912506 22.04295057 22.86118126 21.64754486 C7.43013487 18.04331895 -7.30498192 14.60521099 -19.29907227 27.3112793 Z " fill="#000000" transform="translate(224.838134765625,-0.436279296875)"/>
</svg>
