<?xml version="1.0" encoding="UTF-8"?>
<svg version="1.1" xmlns="http://www.w3.org/2000/svg" width="512" height="512">
<path d="M0 0 C0.81176193 -0.00979385 1.62352386 -0.01958771 2.45988464 -0.02967834 C20.41520676 -0.20163733 37.76531294 -0.04752805 55.3125 4.23828125 C56.19276855 4.44727051 57.07303711 4.65625977 57.97998047 4.87158203 C90.28867691 12.75247181 118.4955243 28.32719638 143.3125 50.23828125 C144.15683594 50.96015625 145.00117188 51.68203125 145.87109375 52.42578125 C150.82037231 56.69902007 155.12592246 61.2249426 159.3125 66.23828125 C160.04984375 67.07617188 160.7871875 67.9140625 161.546875 68.77734375 C196.45570419 109.13372908 211.70836419 161.47157707 208.1015625 214.32958984 C204.58222755 254.62197583 188.54570238 291.8846851 163.3125 323.23828125 C165.73788779 328.84559248 170.34132885 332.75704886 174.5625 337.05078125 C175.83287109 338.3955957 175.83287109 338.3955957 177.12890625 339.76757812 C177.95777344 340.60998047 178.78664063 341.45238281 179.640625 342.3203125 C180.3924707 343.09608643 181.14431641 343.87186035 181.91894531 344.67114258 C184.26915504 346.55052184 184.26915504 346.55052184 187.40917969 346.04956055 C189.43581799 345.48325386 191.4452314 344.85315257 193.4375 344.17578125 C203.22215161 341.80852683 212.22776471 343.00410808 221.3125 347.23828125 C228.25980089 352.03525379 234.30413863 357.93585812 240.24707031 363.89819336 C241.07769989 364.72371201 241.90832947 365.54923065 242.76412964 366.39976501 C245.4780954 369.09995558 248.18469596 371.80738239 250.890625 374.515625 C252.30903478 375.93112793 253.72744751 377.34662797 255.14619708 378.76179034 C259.595564 383.20012218 264.03965736 387.64368529 268.48046875 392.09057617 C273.04112455 396.65727976 277.61090397 401.21470589 282.18520284 405.76774019 C286.13486482 409.69972428 290.07862855 413.63755789 294.01783824 417.58001333 C296.36087102 419.92484778 298.70666439 422.26678808 301.05692291 424.60438347 C303.67704296 427.21210827 306.28736826 429.82927458 308.89550781 432.44897461 C309.66238922 433.20821228 310.42927063 433.96744995 311.21939087 434.74969482 C320.52007792 444.14131676 326.54180345 453.14893367 326.75 466.61328125 C326.63788325 480.86593137 320.07277727 489.37211093 310.5 499.42578125 C301.22134732 508.5067153 291.89137072 512.74477913 278.91503906 512.66113281 C268.90434277 512.36556668 261.89121227 509.08444129 254.62670898 502.19604492 C254.07438064 501.6789178 253.52205229 501.16179068 252.95298672 500.62899303 C244.6559924 492.80401219 236.60772835 484.71883955 228.53515625 476.6640625 C227.66092955 475.79266317 226.78670284 474.92126385 225.88598442 474.02345848 C221.2727904 469.4251375 216.66238637 464.82404176 212.05444336 460.22045898 C207.78707072 455.95733959 203.51216765 451.70187066 199.23395544 447.44963199 C195.08352724 443.32351339 190.94145877 439.18908252 186.80230522 435.05165672 C185.0541908 433.30655584 183.30359124 431.56394052 181.55040169 429.82393837 C179.10072479 427.39140076 176.66078058 424.9494795 174.22290039 422.50512695 C173.50748581 421.79892715 172.79207123 421.09272736 172.05497742 420.36512756 C163.09505026 411.33083579 157.33600348 402.2062488 156.9375 389.23828125 C157.04658554 384.25884739 158.00955779 380.04612715 159.75390625 375.39453125 C160.43299075 372.77317011 160.2661917 371.77116747 159.3125 369.23828125 C157.3389387 366.85067627 157.3389387 366.85067627 154.83984375 364.47265625 C153.94072266 363.58320313 153.04160156 362.69375 152.11523438 361.77734375 C150.69694336 360.39675781 150.69694336 360.39675781 149.25 358.98828125 C148.29033027 358.04366452 147.33133771 357.0983593 146.37304688 356.15234375 C144.02611172 353.84078953 141.67246609 351.53651785 139.3125 349.23828125 C135.61962748 350.6432982 133.10120348 352.068215 130.125 354.67578125 C91.4487868 386.34085328 39.00307549 397.83463244 -9.92578125 393.77148438 C-51.56906232 389.4701217 -90.87601842 371.4877449 -121.546875 343.19140625 C-123.28091258 341.60925517 -125.03449382 340.12881244 -126.875 338.67578125 C-130.54624127 335.49403881 -133.55470732 331.94121819 -136.6875 328.23828125 C-137.52539062 327.28824219 -138.36328125 326.33820313 -139.2265625 325.359375 C-162.51268154 298.80612397 -177.42925236 265.89537621 -183.6875 231.23828125 C-183.87296387 230.21839111 -184.05842773 229.19850098 -184.24951172 228.14770508 C-185.89233196 218.06729561 -186.08627062 208.11161082 -186.0625 197.92578125 C-186.06195618 197.04732544 -186.06141235 196.16886963 -186.06085205 195.26379395 C-185.90998505 142.09826161 -164.81673267 95.60891388 -128.6875 57.23828125 C-128.03136719 56.52800781 -127.37523437 55.81773438 -126.69921875 55.0859375 C-120.64208482 48.74345679 -113.67588167 43.50187968 -106.6875 38.23828125 C-105.85347656 37.60921875 -105.01945312 36.98015625 -104.16015625 36.33203125 C-74.4186834 14.77581845 -36.97353619 0.36989512 0 0 Z M-68.6875 53.23828125 C-69.8115625 53.87507813 -70.935625 54.511875 -72.09375 55.16796875 C-108.35202009 76.66394316 -136.62386412 111.99796361 -147.546875 152.91796875 C-153.85787638 178.06030104 -156.23816217 206.80629871 -149.6875 232.23828125 C-149.48350586 233.06392578 -149.27951172 233.88957031 -149.06933594 234.74023438 C-141.8064386 263.64381708 -128.20661209 288.61002797 -107.6875 310.23828125 C-107.22005371 310.73827637 -106.75260742 311.23827148 -106.27099609 311.75341797 C-77.74879102 342.1026682 -37.11306553 359.95982429 4.453125 361.51953125 C51.55356629 362.56176923 92.54682398 345.33339159 126.9609375 313.8125 C156.35932297 285.48061747 174.41237493 244.29343694 175.515625 203.53125 C176.09583566 158.50984034 161.52981148 117.12182286 130.3125 84.23828125 C129.8489209 83.74215332 129.3853418 83.24602539 128.90771484 82.73486328 C99.38997229 51.30151502 57.89204322 33.67451802 14.953125 32.3046875 C-14.12224441 31.7325748 -43.3720541 38.8351548 -68.6875 53.23828125 Z M194.3125 383.23828125 C192.92917196 384.86369169 191.56787882 386.51213538 190.3125 388.23828125 C191.09380071 390.73380609 191.09380071 390.73380609 192.3125 393.23828125 C193.3025 393.56828125 194.2925 393.89828125 195.3125 394.23828125 C195.3125 394.89828125 195.3125 395.55828125 195.3125 396.23828125 C196.77299854 397.46642775 198.23765486 398.69024882 199.73046875 399.87890625 C201.90831485 401.75024068 203.52925903 403.99484906 205.3125 406.23828125 C206.55 407.22828125 206.55 407.22828125 207.8125 408.23828125 C210.3125 410.23828125 210.3125 410.23828125 212.125 412.55078125 C213.97044647 414.81804405 215.66083854 416.46572155 217.87109375 418.3359375 C222.648331 422.47080261 227.10767882 426.88618596 231.5625 431.36328125 C232.74585938 432.54083984 232.74585938 432.54083984 233.953125 433.7421875 C237.64121632 437.4365087 241.08150757 441.13284591 244.3125 445.23828125 C245.61512468 446.43913838 246.94796053 447.608272 248.3125 448.73828125 C251.38662832 451.35866369 253.80687205 454.06448585 256.3125 457.23828125 C257.281875 458.04265625 258.25125 458.84703125 259.25 459.67578125 C261.57855698 461.62416566 263.21366021 463.22746045 265.0625 465.55078125 C265.805 466.43765625 266.5475 467.32453125 267.3125 468.23828125 C267.9725 468.23828125 268.6325 468.23828125 269.3125 468.23828125 C269.3125 468.89828125 269.3125 469.55828125 269.3125 470.23828125 C270.76425286 471.49206781 272.22299529 472.73957263 273.73046875 473.92578125 C275.3125 475.23828125 275.3125 475.23828125 277.375 477.61328125 C279.18802182 479.5109054 279.18802182 479.5109054 281.62890625 479.10546875 C284.98599335 478.02064585 286.68800698 476.4631891 289.1875 473.98828125 C289.98929687 473.22 290.79109375 472.45171875 291.6171875 471.66015625 C293.59467459 469.36743872 293.59467459 469.36743872 293.16015625 466.5859375 C292.22774175 464.00353605 291.17670833 462.25162625 289.3125 460.23828125 C288.6525 460.23828125 287.9925 460.23828125 287.3125 460.23828125 C286.9825 459.24828125 286.6525 458.25828125 286.3125 457.23828125 C285.6525 457.23828125 284.9925 457.23828125 284.3125 457.23828125 C283.9825 456.24828125 283.6525 455.25828125 283.3125 454.23828125 C282.6525 454.23828125 281.9925 454.23828125 281.3125 454.23828125 C281.085625 453.68140625 280.85875 453.12453125 280.625 452.55078125 C278.93699964 449.57668537 276.84573483 447.5181926 274.3125 445.23828125 C273.6525 445.23828125 272.9925 445.23828125 272.3125 445.23828125 C271.9825 444.24828125 271.6525 443.25828125 271.3125 442.23828125 C270.6525 442.23828125 269.9925 442.23828125 269.3125 442.23828125 C269.08884766 441.69010742 268.86519531 441.14193359 268.63476562 440.57714844 C266.91536971 437.53582406 264.61626001 435.25594504 262.15625 432.81640625 C261.65331421 432.31155701 261.15037842 431.80670776 260.63220215 431.28656006 C259.57220014 430.22520128 258.50968512 429.16634706 257.44482422 428.10986328 C255.81109954 426.48689001 254.18836706 424.85347057 252.56640625 423.21875 C251.53449524 422.18815979 250.50196441 421.15818973 249.46875 420.12890625 C248.98224976 419.63835754 248.49574951 419.14780884 247.99450684 418.64239502 C245.60173319 415.99432745 245.60173319 415.99432745 242.3125 415.23828125 C241.9825 414.24828125 241.6525 413.25828125 241.3125 412.23828125 C240.6525 412.23828125 239.9925 412.23828125 239.3125 412.23828125 C238.9825 411.24828125 238.6525 410.25828125 238.3125 409.23828125 C237.6525 409.23828125 236.9925 409.23828125 236.3125 409.23828125 C235.9825 408.24828125 235.6525 407.25828125 235.3125 406.23828125 C234.6525 406.23828125 233.9925 406.23828125 233.3125 406.23828125 C232.8175 404.75328125 232.8175 404.75328125 232.3125 403.23828125 C231.6525 403.23828125 230.9925 403.23828125 230.3125 403.23828125 C229.8175 401.75328125 229.8175 401.75328125 229.3125 400.23828125 C228.6525 400.23828125 227.9925 400.23828125 227.3125 400.23828125 C226.6525 398.91828125 225.9925 397.59828125 225.3125 396.23828125 C224.6525 396.23828125 223.9925 396.23828125 223.3125 396.23828125 C223.3125 395.57828125 223.3125 394.91828125 223.3125 394.23828125 C221.65801316 392.60359225 221.65801316 392.60359225 219.5625 390.92578125 C216.39488651 388.2506589 213.88157035 385.49902439 211.3125 382.23828125 C210.6525 382.23828125 209.9925 382.23828125 209.3125 382.23828125 C209.3125 381.57828125 209.3125 380.91828125 209.3125 380.23828125 C202.39582687 374.04967898 200.26266385 377.54682018 194.3125 383.23828125 Z " fill="#000000" transform="translate(185.6875,-0.23828125)"/>
</svg>
