<?xml version="1.0" standalone="no"?>
<!DOCTYPE svg PUBLIC "-//W3C//DTD SVG 20010904//EN"
 "http://www.w3.org/TR/2001/REC-SVG-20010904/DTD/svg10.dtd">
<svg version="1.0" xmlns="http://www.w3.org/2000/svg"
 width="512.000000pt" height="512.000000pt" viewBox="0 0 512.000000 512.000000"
 preserveAspectRatio="xMidYMid meet">

<g transform="translate(0.000000,512.000000) scale(0.100000,-0.100000)"
fill="#000000" stroke="none">
<path d="M1969 5092 c-75 -39 -112 -100 -119 -196 l-5 -71 -120 -5 c-68 -3
-130 -11 -142 -18 -30 -16 -70 -70 -78 -104 l-7 -28 -274 0 c-328 0 -350 -5
-433 -96 -89 -97 -82 111 -79 -2259 l3 -2100 24 -45 c32 -61 76 -107 136 -138
l50 -27 352 -3 353 -3 25 25 c30 30 32 65 6 97 l-19 24 -345 5 c-330 5 -347 6
-374 26 -15 11 -36 36 -45 55 -17 32 -18 153 -18 2104 0 1951 1 2072 18 2105
9 19 32 45 51 57 33 22 40 23 302 23 l269 0 0 -85 0 -85 -152 0 c-127 0 -160
-4 -194 -19 -48 -22 -101 -82 -114 -131 -16 -56 -13 -3682 2 -3734 16 -53 81
-118 134 -134 60 -18 2708 -18 2768 0 53 16 118 81 134 134 9 32 12 350 12
1381 l0 1340 -21 27 c-15 19 -30 26 -54 26 -24 0 -39 -7 -54 -26 l-21 -27 0
-1338 c0 -1326 0 -1339 -20 -1359 -20 -20 -33 -20 -1360 -20 -1327 0 -1340 0
-1360 20 -20 20 -20 33 -20 1845 0 1812 0 1825 20 1845 18 18 33 20 160 20
l140 0 0 -83 c0 -107 25 -160 90 -194 l43 -23 927 0 927 0 43 23 c65 34 90 87
90 194 l0 83 140 0 c127 0 142 -2 160 -20 19 -19 20 -33 20 -354 0 -311 1
-335 19 -357 26 -32 86 -32 112 0 18 22 19 46 19 360 0 187 -4 351 -10 371
-13 49 -66 109 -114 131 -34 15 -67 19 -193 19 l-153 0 0 85 0 85 269 0 c262
0 269 -1 302 -23 19 -12 42 -38 51 -57 17 -33 18 -154 18 -2105 0 -1951 -1
-2072 -18 -2104 -9 -19 -30 -44 -45 -55 -28 -21 -35 -21 -1154 -26 l-1125 -5
-19 -24 c-26 -32 -24 -67 6 -97 l24 -24 1133 2 1133 3 50 27 c60 31 104 77
136 138 l24 45 3 2100 c3 2370 10 2162 -79 2259 -83 91 -105 96 -433 96 l-274
0 -7 28 c-8 34 -48 88 -78 104 -12 7 -74 15 -142 18 l-120 5 -6 72 c-7 97 -43
156 -118 195 l-53 28 -538 0 -538 0 -53 -28z m1125 -143 c25 -20 26 -24 26
-120 0 -98 1 -101 29 -130 l29 -29 146 0 146 0 -2 -307 -3 -308 -905 0 -905 0
-3 308 -2 307 146 0 146 0 29 29 c28 29 29 32 29 130 0 154 -52 141 560 141
498 0 508 0 534 -21z"/>
<path d="M2484 3669 c-171 -16 -308 -83 -440 -214 -78 -77 -98 -105 -137 -185
-65 -133 -80 -207 -74 -355 7 -203 68 -344 207 -486 86 -87 185 -149 297 -187
70 -23 94 -26 223 -27 138 0 149 2 233 31 122 44 189 87 282 179 91 91 144
174 182 290 25 72 27 95 28 225 0 126 -3 154 -23 215 -43 128 -90 203 -187
301 -74 75 -106 99 -182 136 -132 66 -262 91 -409 77z m251 -174 c242 -73 405
-296 405 -553 0 -225 -124 -426 -321 -520 -97 -46 -162 -62 -259 -62 -97 0
-162 16 -259 62 -197 94 -321 295 -321 520 0 340 284 604 625 580 28 -2 86
-14 130 -27z"/>
<path d="M2535 3310 c-43 -17 -50 -38 -54 -166 l-3 -122 -123 -4 c-143 -4
-165 -14 -165 -79 0 -60 22 -69 166 -69 l122 0 4 -131 c4 -123 5 -133 27 -150
13 -11 36 -19 51 -19 15 0 38 8 51 19 22 17 23 27 27 150 l4 131 122 0 c144 0
166 9 166 69 0 65 -22 75 -165 79 l-123 4 -3 124 c-4 108 -7 126 -24 143 -25
24 -54 32 -80 21z"/>
<path d="M1940 1868 c-17 -18 -77 -88 -133 -155 -56 -67 -105 -122 -108 -122
-3 -1 -27 26 -53 59 -26 33 -57 62 -70 66 -52 13 -105 -39 -92 -91 3 -11 42
-66 86 -122 80 -102 107 -122 148 -109 24 8 341 380 355 417 16 41 -16 83 -67
87 -30 3 -41 -2 -66 -30z"/>
<path d="M2334 1656 c-48 -21 -60 -80 -24 -116 20 -20 33 -20 654 -20 l635 0
20 26 c27 35 26 57 -3 91 l-24 28 -614 2 c-500 2 -619 0 -644 -11z"/>
<path d="M1908 1208 c-35 -40 -95 -109 -133 -153 -37 -44 -72 -81 -76 -83 -4
-2 -26 22 -50 52 -46 59 -80 78 -116 65 -31 -11 -56 -54 -49 -83 8 -34 167
-230 189 -234 45 -9 71 14 236 209 183 215 191 230 146 274 -44 45 -75 35
-147 -47z"/>
<path d="M2312 1017 c-29 -31 -28 -72 3 -102 l24 -25 615 0 c429 0 622 3 639
11 24 11 47 47 47 73 0 7 -9 25 -21 40 l-20 26 -633 0 -633 0 -21 -23z"/>
</g>
</svg>
