<?xml version="1.0" encoding="UTF-8"?>
<svg version="1.1" xmlns="http://www.w3.org/2000/svg" width="512" height="512">
<path d="M0 0 C2.41980054 -0.00389879 4.8396004 -0.00823583 7.25939941 -0.01298523 C12.30202465 -0.02039657 17.3445798 -0.02019268 22.38720703 -0.01489258 C28.80164857 -0.00909428 35.2158017 -0.02606301 41.63019562 -0.04923725 C46.6183638 -0.06406986 51.60646394 -0.06483358 56.59465027 -0.06172752 C58.95778475 -0.06223561 61.32092357 -0.06737513 63.68403625 -0.07753944 C80.36534612 -0.14052255 96.88136244 0.34823177 112.78125 5.98828125 C113.51480713 6.24174316 114.24836426 6.49520508 115.00415039 6.75634766 C126.97043714 11.06333244 137.62625762 17.4158112 147.59375 25.30078125 C148.39167969 25.89890625 149.18960937 26.49703125 150.01171875 27.11328125 C153.43370216 29.82664154 155.32548423 31.65927616 157.03125 35.73828125 C156.55368402 39.62703281 156.04880208 40.29169669 153.51647949 43.06726074 C152.87774399 43.76915024 152.23900848 44.47103973 151.58091736 45.19419861 C148.57109424 48.38489169 145.50686878 51.51094951 142.39257812 54.59960938 C141.71029648 55.28043076 141.02801483 55.96125214 140.32505798 56.66270447 C138.8573878 58.12659729 137.38856458 59.58933484 135.91868591 61.05101013 C133.58664308 63.37017638 131.25783732 65.69255084 128.92980957 68.01574707 C123.14987674 73.78237893 117.36449443 79.54353359 111.57928467 85.30487061 C106.68063544 90.18372635 101.78408173 95.06466733 96.89024353 99.948349 C94.60633482 102.22581999 92.31941354 104.50023531 90.03234863 106.77453613 C88.61972368 108.18352539 87.20724071 109.59265703 85.79492188 111.00195312 C85.16718369 111.62452499 84.5394455 112.24709686 83.89268494 112.88853455 C80.12229814 116.65847606 76.5528244 120.55330829 73.07439423 124.59452057 C71.40976826 126.51279762 69.65683233 128.33618625 67.90625 130.17578125 C61.62605908 137.46103914 60.00188612 145.36107059 60.0546875 154.76171875 C60.04289459 155.71470856 60.03110168 156.66769836 60.01895142 157.64956665 C59.98398599 160.65847561 59.97454694 163.6666865 59.96875 166.67578125 C59.95238296 169.70609051 59.93035403 172.73609338 59.89712524 175.76626587 C59.87755547 177.64262977 59.86815383 179.51913454 59.87020874 181.39559937 C59.86324982 182.24393341 59.85629089 183.09226746 59.84912109 183.96630859 C59.84786224 184.70891937 59.84660339 185.45153015 59.8453064 186.21664429 C59.55319526 188.63677605 58.87334334 190.23366461 57.59375 192.30078125 C55.102769 193.54627175 53.4273241 193.43214918 50.63949585 193.44122314 C49.59127151 193.44693329 48.54304718 193.45264343 47.46305847 193.45852661 C46.30784195 193.45964447 45.15262543 193.46076233 43.96240234 193.46191406 C42.74910751 193.46687897 41.53581268 193.47184387 40.28575134 193.47695923 C36.94810895 193.48908831 33.61052944 193.49653356 30.27287245 193.50096989 C28.1818779 193.50390318 26.0908888 193.50800888 23.999897 193.51247406 C17.44206943 193.52616486 10.88425439 193.53581887 4.32641351 193.53967595 C-3.21185349 193.54413481 -10.74993719 193.56157394 -18.28814852 193.59067655 C-24.13043248 193.61243669 -29.97266548 193.6223881 -35.81498945 193.62371707 C-39.29533712 193.62475664 -42.77551289 193.6304784 -46.25581741 193.64853668 C-68.57370588 193.75760367 -90.92535396 193.68996599 -109.40625 179.30078125 C-110.16679688 178.71554687 -110.92734375 178.1303125 -111.7109375 177.52734375 C-124.38838288 167.06951843 -131.11823851 150.90566862 -133.17919922 134.81054688 C-134.64035222 118.65930724 -134.22736135 102.09295307 -130.40625 86.30078125 C-130.23996094 85.59453613 -130.07367188 84.88829102 -129.90234375 84.16064453 C-125.11643178 64.48079724 -115.39797429 46.92960682 -101.40625 32.30078125 C-100.80425781 31.62402344 -100.20226562 30.94726562 -99.58203125 30.25 C-87.30061609 16.95623392 -70.20505598 9.21763414 -53.03125 4.48828125 C-51.99145996 4.19570435 -51.99145996 4.19570435 -50.93066406 3.8972168 C-34.3272306 -0.33199485 -16.99711867 -0.01154348 0 0 Z " fill="#000000" transform="translate(186.40625,265.69921875)"/>
<path d="M0 0 C16.81979005 14.35192912 29.11612887 33.43624536 31.4375 55.8125 C33.08214675 79.9035292 28.88400882 102.18590436 13.33984375 121.40625 C11.10982559 123.95484219 8.81026823 126.39651911 6.4375 128.8125 C5.70015625 129.57433594 4.9628125 130.33617187 4.203125 131.12109375 C-13.85735763 148.60582274 -36.39242563 153.36719059 -60.7265625 153.08203125 C-83.39020006 152.45437526 -103.39811267 140.93299958 -118.92578125 124.8515625 C-127.28185761 115.514037 -132.59094818 104.59986213 -136.5625 92.8125 C-136.9028125 91.82507813 -137.243125 90.83765625 -137.59375 89.8203125 C-143.90165702 67.80104447 -139.50227709 43.56804884 -128.72607422 23.79199219 C-125.53995936 18.37171958 -121.66771647 13.55660778 -117.5625 8.8125 C-116.99015625 8.13960937 -116.4178125 7.46671875 -115.828125 6.7734375 C-86.25829788 -25.28493942 -33.31787925 -26.21504946 0 0 Z " fill="#000000" transform="translate(267.5625,71.1875)"/>
<path d="M0 0 C3.77427567 1.76362713 6.18307843 3.9414105 9.13574219 6.90869141 C9.63375839 7.40641556 10.1317746 7.90413971 10.6448822 8.41694641 C12.28366733 10.0571207 13.91526134 11.70425661 15.546875 13.3515625 C16.68415347 14.49257256 17.8218754 15.63314077 18.96002197 16.77328491 C21.94989979 19.77078762 24.93372191 22.77424851 27.9163208 25.7789917 C30.96271321 28.84586712 34.01479703 31.90706694 37.06640625 34.96875 C43.04985434 40.97362783 49.02691663 46.98481232 55 53 C53.64267227 56.0308798 52.12076341 58.1286856 49.7762146 60.47102356 C48.77973404 61.47379585 48.77973404 61.47379585 47.76312256 62.49682617 C47.03482239 63.21950684 46.30652222 63.9421875 45.55615234 64.68676758 C44.78842499 65.45639328 44.02069763 66.22601898 43.22970581 67.01896667 C40.68664549 69.56573565 38.1364464 72.1052235 35.5859375 74.64453125 C33.81397652 76.41529979 32.0423854 78.18643852 30.27114868 79.95793152 C26.55348194 83.67403295 22.8325931 87.38687572 19.10888672 91.09692383 C14.34907617 95.83933868 9.59628046 100.58871423 4.845541 105.34021473 C1.18428908 109.00119381 -2.47957092 112.65955332 -6.14429855 116.31705284 C-7.8966738 118.06625727 -9.64845405 119.81605799 -11.39961624 121.56647682 C-13.85717597 124.02185293 -16.31801111 126.47389892 -18.77978516 128.92504883 C-19.49593994 129.6416568 -20.21209473 130.35826477 -20.94995117 131.09658813 C-24.90788301 135.02974085 -28.95676956 138.77635375 -33.22463703 142.37228584 C-35.09361589 144.08583028 -36.63412733 145.91902585 -38.21899414 147.89477539 C-41.25479759 150.9553954 -43.47460336 151.52036817 -47.75170898 151.79467773 C-50.00014148 151.79294149 -52.24878857 151.75480581 -54.49609375 151.68359375 C-55.55058716 151.67654419 -56.60508057 151.66949463 -57.69152832 151.66223145 C-60.76694867 151.63360078 -63.83977887 151.56849719 -66.9143486 151.49338913 C-72.49323258 151.36981392 -78.07306517 151.29231335 -83.65258789 151.20336914 C-86.00663987 151.16473616 -88.36068974 151.12597421 -90.71473694 151.08705139 C-92.47649129 151.05803426 -94.23824565 151.02901713 -96 151 C-99.60393143 131.56450199 -103.58631452 106.47334975 -92.0625 89.0647583 C-81.43626462 73.97995852 -66.9347535 61.4971937 -53.24331665 49.28185308 C-47.32745703 43.99278538 -41.57718786 38.5357703 -35.83126831 33.06347001 C-24.05470031 21.85459675 -12.09955354 10.85969441 0 0 Z " fill="#000000" transform="translate(373,319)"/>
<path d="M0 0 C0.84691406 -0.0103125 1.69382812 -0.020625 2.56640625 -0.03125 C9.91141454 1.32782636 15.13467206 5.59901802 20.23828125 10.8046875 C20.84133591 11.40628693 21.44439056 12.00788635 22.0657196 12.62771606 C23.32836342 13.89200847 24.5861155 15.16120376 25.83911133 16.43505859 C27.75013556 18.37513762 29.67924639 20.29575863 31.61132812 22.21484375 C32.84226302 23.45201445 34.07211882 24.69025994 35.30078125 25.9296875 C36.15860954 26.78311234 36.15860954 26.78311234 37.0337677 27.65377808 C42.2101941 32.95303824 45.01085735 38.23357348 45.75 45.625 C44.90375562 56.11843035 39.21151541 62.66632922 31.95605469 69.70874023 C30.42038451 71.20416696 28.91685552 72.72746719 27.4140625 74.25585938 C26.44446056 75.21791503 25.47316633 76.17826881 24.5 77.13671875 C23.62472656 77.99998779 22.74945313 78.86325684 21.84765625 79.75268555 C19.4375 81.5 19.4375 81.5 17.61358643 81.41464233 C14.46656216 80.09190001 12.61160119 78.03216504 10.20996094 75.61303711 C9.44830627 74.85203957 9.44830627 74.85203957 8.67126465 74.07566833 C6.99759075 72.39990733 5.33478872 70.71377731 3.671875 69.02734375 C2.51239473 67.86226727 1.35224958 66.69785214 0.19146729 65.53407288 C-2.85982787 62.47133103 -5.90200625 59.39968669 -8.94238281 56.32611084 C-12.0472856 53.19050356 -15.1607131 50.06338633 -18.2734375 46.93554688 C-24.37817432 40.79864898 -30.47330744 34.65232143 -36.5625 28.5 C-33.87897052 22.82536653 -29.38692793 18.91531208 -25 14.5 C-24.13052734 13.59765625 -23.26105469 12.6953125 -22.36523438 11.765625 C-15.94724649 5.29499143 -9.55517469 -0.11670442 0 0 Z " fill="#000000" transform="translate(424.5625,276.5)"/>
</svg>
