<?xml version="1.0" standalone="no"?>
<!DOCTYPE svg PUBLIC "-//W3C//DTD SVG 20010904//EN"
 "http://www.w3.org/TR/2001/REC-SVG-20010904/DTD/svg10.dtd">
<svg version="1.0" xmlns="http://www.w3.org/2000/svg"
 width="512.000000pt" height="512.000000pt" viewBox="0 0 512.000000 512.000000"
 preserveAspectRatio="xMidYMid meet">

<g transform="translate(0.000000,512.000000) scale(0.100000,-0.100000)"
fill="#000000" stroke="none">
<path d="M2385 5014 c-16 -2 -70 -9 -120 -15 -49 -6 -148 -26 -220 -44 -715
-183 -1272 -750 -1446 -1470 -32 -136 -23 -180 38 -173 22 2 34 14 55 53 57
106 149 155 291 155 192 0 339 -103 356 -249 8 -67 23 -91 57 -91 30 0 51 23
64 71 41 152 287 213 486 120 108 -51 164 -125 164 -219 0 -58 17 -85 54 -84
35 0 49 15 65 70 24 85 127 157 241 169 l59 6 -5 -34 c-3 -19 -60 -432 -127
-919 l-123 -885 -529 0 -529 0 -295 624 c-231 486 -305 632 -334 663 -105 109
-277 115 -387 12 -78 -73 -110 -168 -90 -260 6 -26 164 -370 352 -766 366
-772 366 -770 464 -818 46 -22 63 -24 284 -30 129 -4 227 -7 218 -8 -10 -1
-21 -10 -26 -20 -23 -43 -172 -556 -172 -591 0 -76 35 -130 105 -162 31 -15
65 -19 155 -19 63 0 132 5 152 10 42 12 95 60 110 99 34 91 188 621 186 641
-2 14 -13 30 -28 37 -21 11 -2 13 128 13 140 0 152 -1 152 -18 0 -10 -20 -164
-45 -342 -53 -387 -54 -394 -19 -416 24 -16 27 -16 52 3 27 20 28 26 79 394
29 206 52 375 53 377 0 1 309 2 688 1 414 0 678 -4 665 -9 -12 -5 -25 -20 -28
-33 -6 -23 162 -601 190 -657 19 -36 65 -76 104 -89 52 -17 254 -14 299 4 43
19 79 50 98 87 27 53 17 114 -70 400 -46 152 -87 281 -90 286 -4 7 102 12 311
14 307 3 320 4 369 26 105 47 168 147 167 262 0 84 -29 146 -95 205 -89 80 -3
75 -1340 75 -653 0 -1188 4 -1188 8 0 12 238 1739 245 1780 7 38 20 40 78 11
107 -55 167 -135 167 -225 0 -55 19 -84 56 -84 32 0 52 21 64 68 31 120 187
194 359 171 162 -23 290 -134 291 -254 0 -53 23 -85 60 -85 32 0 53 24 65 75
10 43 92 119 151 139 149 52 318 17 422 -85 41 -41 72 -99 72 -136 0 -68 72
-100 106 -48 23 35 23 346 -1 500 -131 868 -784 1537 -1645 1684 -119 21 -419
36 -495 25z m-106 -128 c-2 -2 -38 -27 -79 -54 -94 -63 -230 -190 -311 -290
-212 -261 -404 -660 -484 -1004 l-18 -77 -50 44 c-99 90 -258 143 -390 131
-60 -5 -127 -23 -190 -51 -45 -19 105 311 217 480 276 414 697 699 1181 801
116 24 131 26 124 20z m316 -42 c-139 -202 -284 -653 -402 -1246 l-47 -236
-49 43 c-97 88 -227 131 -372 122 -81 -4 -113 -12 -207 -52 -39 -16 79 337
186 560 119 247 230 409 383 558 105 103 180 159 288 212 76 38 233 90 243 80
2 -1 -9 -20 -23 -41z m226 36 c93 -51 149 -503 128 -1040 -8 -226 -23 -438
-35 -528 l-6 -42 -42 33 c-64 51 -89 65 -170 92 -130 44 -319 30 -413 -31 -13
-8 -23 -12 -23 -9 0 3 20 107 45 231 127 637 305 1155 440 1273 39 34 47 36
76 21z m248 -93 c72 -43 206 -174 270 -267 111 -158 209 -391 264 -625 42
-179 58 -308 64 -525 l6 -205 -37 33 c-144 126 -391 156 -566 67 l-53 -27 6
39 c42 266 56 1023 24 1255 -10 70 -29 166 -41 213 -26 98 -29 96 63 42z m344
-93 c475 -239 842 -705 968 -1230 24 -103 49 -273 49 -343 l0 -53 -37 33
c-136 119 -400 144 -562 53 -24 -13 -44 -24 -45 -24 0 0 -1 78 -2 173 -1 209
-16 355 -54 548 -67 335 -209 653 -376 838 -25 28 -43 51 -40 51 4 0 48 -21
99 -46z m-2937 -1985 c18 -10 38 -29 46 -42 8 -12 149 -305 313 -652 164 -346
303 -636 308 -642 7 -10 380 -13 1801 -13 1259 0 1803 -3 1831 -11 76 -21 125
-86 125 -167 0 -54 -25 -100 -73 -136 l-28 -21 -1900 -3 c-1866 -2 -1900 -2
-1938 17 -21 11 -45 31 -55 45 -9 14 -167 344 -351 732 -292 615 -335 711
-335 752 0 131 144 211 256 141z m1388 -1819 c-25 -10 -29 -20 -134 -370 -86
-287 -86 -285 -116 -299 -34 -15 -203 -14 -234 2 -50 25 -48 43 39 331 45 148
81 280 79 295 -2 15 -13 30 -28 38 -21 11 12 13 195 12 134 0 212 -4 199 -9z
m2218 -2 c-21 -21 -13 -58 68 -327 44 -145 80 -273 80 -286 0 -46 -33 -60
-149 -63 -154 -5 -139 -26 -253 353 -82 272 -97 311 -118 322 -21 11 10 13
180 13 159 0 201 -3 192 -12z"/>
</g>
</svg>
