<?xml version="1.0" encoding="UTF-8"?>
<svg version="1.1" xmlns="http://www.w3.org/2000/svg" width="512" height="512">
<path d="M0 0 C0.89115509 -0.00974854 1.78231018 -0.01949707 2.70046997 -0.02954102 C22.6295645 -0.20261362 41.87011372 0.05359185 61.4453125 4.23828125 C62.34491699 4.42551758 63.24452148 4.61275391 64.17138672 4.80566406 C96.33800069 11.6819681 128.07546387 25.55699481 154.4453125 45.23828125 C155.35917725 45.91890625 155.35917725 45.91890625 156.29150391 46.61328125 C164.79530561 53.00418213 172.77136358 59.87282077 180.4453125 67.23828125 C181.28860107 68.04072266 181.28860107 68.04072266 182.14892578 68.859375 C190.74935063 77.08235917 198.38263765 85.66699142 205.4453125 95.23828125 C205.87295898 95.81046387 206.30060547 96.38264648 206.74121094 96.97216797 C232.69358032 131.79470751 248.7840768 173.06051894 253.4453125 216.23828125 C253.55746094 217.20765625 253.66960937 218.17703125 253.78515625 219.17578125 C257.94084447 261.98506262 250.2696568 306.58810044 231.4453125 345.23828125 C230.80149097 346.6025852 230.15825917 347.96716761 229.515625 349.33203125 C214.36082852 381.04088141 190.48520646 410.99357051 162.4453125 432.23828125 C161.91711914 432.64820313 161.38892578 433.058125 160.84472656 433.48046875 C118.56551925 466.23776863 66.94969089 483.7311592 13.5703125 483.61328125 C12.67922791 483.61306976 11.78814331 483.61285828 10.87005615 483.61264038 C-44.11826113 483.48312178 -97.90281302 462.81778754 -140.5546875 428.23828125 C-141.48410156 427.5009375 -142.41351563 426.76359375 -143.37109375 426.00390625 C-150.38392005 420.3776843 -157.00543567 414.38976779 -163.5546875 408.23828125 C-164.24046875 407.61824219 -164.92625 406.99820312 -165.6328125 406.359375 C-181.99622439 390.99289367 -194.22862007 369.96725231 -204.5546875 350.23828125 C-204.94011719 349.50689941 -205.32554687 348.77551758 -205.72265625 348.02197266 C-216.59606594 327.10550325 -223.4455706 304.39875834 -227.5546875 281.23828125 C-227.74949707 280.19510742 -227.74949707 280.19510742 -227.94824219 279.13085938 C-238.48978392 220.48799697 -218.04328162 155.74517826 -185.10400391 107.54638672 C-146.75124576 52.84489948 -92.3435619 14.13104575 -25.94677734 2.39111328 C-17.29438317 0.94157574 -8.77483207 0.0800334 0 0 Z " fill="#A9392D" transform="translate(244.5546875,13.76171875)"/>
<path d="M0 0 C0.89115509 -0.00974854 1.78231018 -0.01949707 2.70046997 -0.02954102 C22.6295645 -0.20261362 41.87011372 0.05359185 61.4453125 4.23828125 C62.34491699 4.42551758 63.24452148 4.61275391 64.17138672 4.80566406 C96.33800069 11.6819681 128.07546387 25.55699481 154.4453125 45.23828125 C155.35917725 45.91890625 155.35917725 45.91890625 156.29150391 46.61328125 C164.79530561 53.00418213 172.77136358 59.87282077 180.4453125 67.23828125 C181.28860107 68.04072266 181.28860107 68.04072266 182.14892578 68.859375 C190.74935063 77.08235917 198.38263765 85.66699142 205.4453125 95.23828125 C205.87295898 95.81046387 206.30060547 96.38264648 206.74121094 96.97216797 C232.69358032 131.79470751 248.7840768 173.06051894 253.4453125 216.23828125 C253.55746094 217.20765625 253.66960937 218.17703125 253.78515625 219.17578125 C257.94084447 261.98506262 250.2696568 306.58810044 231.4453125 345.23828125 C230.80149097 346.6025852 230.15825917 347.96716761 229.515625 349.33203125 C221.46590337 366.17471318 211.16360776 384.36518902 197.4453125 397.23828125 C196.86265625 396.70460938 196.28 396.1709375 195.6796875 395.62109375 C158.21071524 361.56910323 112.73224941 338.33533041 62.4453125 330.23828125 C61.58006497 327.8042112 60.72788385 325.36684941 59.8828125 322.92578125 C59.63595703 322.23548828 59.38910156 321.54519531 59.13476562 320.83398438 C57.33203125 315.578125 57.33203125 315.578125 58.4453125 312.23828125 C59.94140625 310.80078125 59.94140625 310.80078125 61.8828125 309.23828125 C69.75339086 302.55464828 76.50430324 294.66678625 82.4453125 286.23828125 C84.72428953 289.1002524 86.34359977 291.95672345 87.9453125 295.23828125 C95.94865638 310.11016653 109.50328551 320.66533153 125.3828125 326.05078125 C130.7330772 327.56484662 135.92680097 327.52155085 141.4453125 327.23828125 C141.7753125 326.57828125 142.1053125 325.91828125 142.4453125 325.23828125 C141.2696875 324.92890625 141.2696875 324.92890625 140.0703125 324.61328125 C126.18966408 319.34820771 114.28672447 308.74159504 107.89770508 295.34130859 C102.37034902 282.54472091 102.40990637 265.72263748 105.4453125 252.23828125 C106.03699219 252.07972656 106.62867188 251.92117188 107.23828125 251.7578125 C116.04295897 249.15806264 120.14474383 244.11742531 124.4453125 236.23828125 C127.54569429 229.59460598 127.56464014 221.60084765 125.0703125 214.73828125 C123.54900573 211.22836114 123.54900573 211.22836114 121.4453125 208.23828125 C121.18118286 203.6105099 121.67287655 199.35493489 122.4453125 194.80078125 C125.91329804 169.70154774 123.37536978 146.35324236 108.5078125 125.30078125 C104.42596843 120.03105678 100.02045627 115.08208632 95.4453125 110.23828125 C94.43404297 109.13033203 94.43404297 109.13033203 93.40234375 108 C82.28586494 96.2578282 68.8105988 88.35938401 54.4453125 81.23828125 C54.60386719 80.53703125 54.76242187 79.83578125 54.92578125 79.11328125 C57.10820551 67.03610638 55.0183346 55.2080637 48.2578125 44.92578125 C40.78917646 35.13215403 32.04098022 28.87718671 19.87890625 26.55859375 C7.45597526 24.92347282 -4.34462588 27.09414536 -14.56640625 34.625 C-15.55060547 35.42357422 -15.55060547 35.42357422 -16.5546875 36.23828125 C-17.17988281 36.73972656 -17.80507812 37.24117187 -18.44921875 37.7578125 C-25.25227078 43.84943426 -29.98553568 53.2941159 -31.5546875 62.23828125 C-31.91308143 69.6676905 -31.45515125 76.87085053 -30.5546875 84.23828125 C-31.53566406 84.80933594 -32.51664063 85.38039063 -33.52734375 85.96875 C-53.54711643 97.88557908 -69.12674917 112.84380669 -80.5546875 133.23828125 C-81.11027344 134.2025 -81.66585937 135.16671875 -82.23828125 136.16015625 C-90.77813622 151.9194896 -93.46346087 171.14880111 -89.5546875 188.73828125 C-88.42124602 194.33537887 -88.32704736 199.73146933 -88.3046875 205.42578125 C-88.29566406 206.36550781 -88.28664062 207.30523437 -88.27734375 208.2734375 C-88.33240175 221.23041948 -92.94224677 232.73018558 -99.3671875 243.86328125 C-104.20032266 253.34976318 -104.19955599 263.60134465 -101.66015625 273.84765625 C-100.01704466 278.35384857 -97.96807346 282.48410811 -95.6640625 286.6875 C-91.32646377 294.63465528 -88.97250803 301.09251213 -90.5546875 310.23828125 C-93.84604205 317.78096877 -100.78459209 321.69148929 -108.17431641 324.64160156 C-115.03273733 327.24245729 -121.86283436 329.20114838 -129.078125 330.59765625 C-131.70959795 331.05486375 -131.70959795 331.05486375 -133.5546875 333.23828125 C-127.06848643 337.5624153 -119.80067008 337.59793208 -112.2421875 337.55078125 C-111.31301514 337.5458667 -110.38384277 337.54095215 -109.42651367 337.53588867 C-96.64280384 337.31743074 -83.73777832 333.63007868 -74.5546875 324.23828125 C-65.23009535 311.20218068 -63.41168376 296.88973921 -62.5546875 281.23828125 C-60.47591212 283.80038363 -58.45159687 286.37926996 -56.50390625 289.04296875 C-55.75753906 290.05617188 -55.01117188 291.069375 -54.2421875 292.11328125 C-53.83137939 292.67208984 -53.42057129 293.23089844 -52.99731445 293.80664062 C-50.40023828 297.20986804 -47.67226404 300.12827072 -44.4609375 302.96484375 C-33.7219241 312.50047484 -33.7219241 312.50047484 -33.1953125 317.97265625 C-34.26523879 322.69291928 -35.87841637 326.22387455 -38.5546875 330.23828125 C-40.81030273 330.97436523 -40.81030273 330.97436523 -43.61328125 331.484375 C-45.15338867 331.78118164 -45.15338867 331.78118164 -46.72460938 332.08398438 C-47.80291016 332.27927734 -48.88121094 332.47457031 -49.9921875 332.67578125 C-57.33667657 334.02310259 -64.20504108 335.65376505 -71.18481445 338.3347168 C-73.89467281 339.36790787 -76.63363302 340.15990546 -79.4296875 340.92578125 C-101.43904194 347.64797795 -124.04633936 358.54643307 -142.5546875 372.23828125 C-143.58078125 372.99367188 -144.606875 373.7490625 -145.6640625 374.52734375 C-152.89187892 379.93707381 -159.75174664 385.74544636 -166.55859375 391.671875 C-168.84154725 393.62741665 -171.11910969 395.48156865 -173.5546875 397.23828125 C-185.97624239 382.99740772 -195.85195418 366.96373381 -204.5546875 350.23828125 C-204.9372168 349.51125 -205.31974609 348.78421875 -205.71386719 348.03515625 C-216.59171104 327.11408572 -223.44445673 304.4050365 -227.5546875 281.23828125 C-227.74949707 280.19510742 -227.74949707 280.19510742 -227.94824219 279.13085938 C-238.48978392 220.48799697 -218.04328162 155.74517826 -185.10400391 107.54638672 C-146.75124576 52.84489948 -92.3435619 14.13104575 -25.94677734 2.39111328 C-17.29438317 0.94157574 -8.77483207 0.0800334 0 0 Z " fill="#83CFF6" transform="translate(244.5546875,13.76171875)"/>
<path d="M0 0 C9.12553362 7.57745202 15.13839882 17.22028832 17 29 C17.46368016 35.42528217 17.74829427 41.06543628 15 47 C15.763125 47.20625 16.52625 47.4125 17.3125 47.625 C31.47882991 52.90736031 43.13568754 62.72955671 54 73 C55.23363281 74.13695313 55.23363281 74.13695313 56.4921875 75.296875 C72.66208877 90.7111734 84.48402542 111.02228831 85.23828125 133.6796875 C85.42480507 143.86774733 85.14377297 153.8190052 83.4375 163.87890625 C82.38541532 171.10938697 82.38541532 171.10938697 84.9375 177.6875 C88.54792913 183.486068 88.75805748 189.27969265 88 196 C85.51694378 204.37645107 82.0567423 211.63159033 74.5 216.375 C71.10781019 217.94994527 69.60053853 218.16029795 66 218 C64.28158832 247.40445267 64.28158832 247.40445267 77.11328125 273.05859375 C77.73589844 273.69925781 78.35851562 274.33992188 79 275 C79.63292969 275.67160156 80.26585937 276.34320313 80.91796875 277.03515625 C87.34330597 283.29172288 95.04359812 287.05848866 103 291 C102.67 291.99 102.34 292.98 102 294 C88.47394411 295.26543142 75.55883898 290.32765574 65 282 C50.53603717 269.38333677 40.47745601 252.35484648 38.82861328 232.98681641 C38.13763611 222.29265365 39.23580452 213.13748035 42.86547852 203.02661133 C45.26386184 196.19047092 46.42582208 189.09478263 43.8125 182.125 C40.79895237 176.92922822 36.91334183 174.75037144 31.375 172.75 C17.18634846 167.0501363 7.3719692 156.30529343 -1.4375 144.1875 C-2.75368153 142.40902531 -4.07137934 140.6316717 -5.390625 138.85546875 C-6.01517578 138.01290527 -6.63972656 137.1703418 -7.28320312 136.30224609 C-15.95542501 124.67268801 -25.47187505 113.98303742 -37.25 105.4375 C-38.08084106 104.82926392 -38.08084106 104.82926392 -38.9284668 104.20874023 C-44.91713436 100.03342384 -51.59732579 96.88261521 -59 98 C-68.43065115 104.73617939 -71.44354707 119.01935691 -73.53442383 129.74023438 C-74.04818747 133.33738806 -74.17857131 136.82009957 -74.24609375 140.453125 C-74.279046 141.89193285 -74.3122574 143.33073479 -74.34570312 144.76953125 C-74.39287632 147.00500286 -74.43733142 149.24045294 -74.47680664 151.47607422 C-74.87528223 173.05102206 -79.85043338 189.3418606 -95.75 204.6875 C-102.78197565 211.63169787 -105.30442792 215.81126546 -105.4375 225.8125 C-105.39115083 230.57337732 -104.94106386 234.94237698 -103.5 239.5 C-99.3825926 252.69934428 -101.91474333 268.29088349 -107.203125 280.859375 C-108.35142625 283.02515837 -109.58219012 285.00277556 -111 287 C-112.051875 288.546875 -112.051875 288.546875 -113.125 290.125 C-118.96296327 296.71565665 -127.55687237 300.92904417 -136 303 C-137.04994141 303.27457031 -137.04994141 303.27457031 -138.12109375 303.5546875 C-142.47259461 304.22778261 -146.79041207 304.22521022 -151.1875 304.25 C-152.53038086 304.2809375 -152.53038086 304.2809375 -153.90039062 304.3125 C-160.19939965 304.34888417 -166.2313435 303.70887051 -172 301 C-172.99 299.515 -172.99 299.515 -174 298 C-169.56572421 295.57007178 -165.27817316 294.20378117 -160.375 293.125 C-150.4575591 290.77116614 -139.88136315 288.05572752 -133 280 C-129.81044019 274.80871645 -129.66729962 268.84398278 -131 263 C-133.10473718 257.3702035 -135.86139009 252.05541317 -138.6171875 246.72265625 C-143.50116796 237.20093865 -144.91345309 227.59321004 -143 217 C-140.79133606 210.4209523 -137.46718589 204.38854279 -134.18115234 198.29931641 C-129.63028838 189.44027614 -128.8058976 181.11046824 -128.8125 171.3125 C-128.81185547 170.31863281 -128.81121094 169.32476562 -128.81054688 168.30078125 C-128.85119492 162.68396006 -129.31879618 157.56541718 -130.5390625 152.07421875 C-134.21457501 127.56041925 -127.41892007 105.80223083 -112.98486328 86.08422852 C-101.44052228 70.87498288 -87.84164221 59.03773108 -71 50 C-71.165 48.783125 -71.33 47.56625 -71.5 46.3125 C-73.06345409 31.42468348 -71.62164339 18.97111445 -62 7 C-46.5597725 -11.79830388 -19.35395376 -14.41738785 0 0 Z " fill="#2C2C2C" transform="translate(284,48)"/>
<path d="M0 0 C21.87847306 5.11799995 39.0164599 29.83775215 51.37109375 46.78125 C61.19553384 60.16322115 70.98938995 69.05098125 86 76 C90.65756598 78.30908093 94.1062685 80.54810539 97 85 C99.5598342 93.14773894 97.79141882 100.65712891 95 108.4375 C90.53238429 122.02264638 89.58694226 137.8837283 95.4296875 151.27734375 C96.05466312 155.35680787 95.97140557 155.70137684 93.703125 158.83203125 C92.57680357 160.17990217 91.42407707 161.50601655 90.25 162.8125 C89.65469482 163.50738525 89.05938965 164.20227051 88.44604492 164.91821289 C75.65681849 179.67159076 75.65681849 179.67159076 71 182 C71.28875 183.134375 71.5775 184.26875 71.875 185.4375 C73.00260572 189.93986857 74.01321086 194.46496906 75 199 C76.01707031 199.07347656 76.01707031 199.07347656 77.0546875 199.1484375 C83.49299341 199.66564213 89.69732977 200.59181121 96 202 C96 202.33 96 202.66 96 203 C95.15824219 203.20496094 94.31648437 203.40992188 93.44921875 203.62109375 C89.07294305 205.3706128 86.26056816 207.91426385 82.8125 211.0625 C81.47634106 212.25251655 80.13909582 213.44131448 78.80078125 214.62890625 C78.15061035 215.20914551 77.50043945 215.78938477 76.83056641 216.38720703 C74.44051906 218.49292226 71.98095667 220.50258811 69.5 222.5 C65.08330845 226.07541697 60.78223126 229.76603141 56.5 233.5 C51.33471712 238.00263572 46.11055982 242.40932033 40.78515625 246.72265625 C35.46219159 251.07509439 30.23741046 255.54528681 25 260 C20.90272684 257.38611916 17.36820469 254.65303345 13.8125 251.3125 C9.24039122 247.08732631 4.52651387 243.1235268 -0.31640625 239.21484375 C-2.94708557 237.04367173 -5.47942424 234.79758643 -8 232.5 C-11.41739372 229.38541332 -14.9052235 226.4081338 -18.5 223.5 C-24.54338392 218.60895623 -30.31106417 213.43006314 -36.00390625 208.13671875 C-39.22882622 205.21827066 -41.46134095 203.27507025 -46 203 C-46 202.67 -46 202.34 -46 202 C-36.1 200.02 -36.1 200.02 -26 198 C-25.29875 195.9375 -24.5975 193.875 -23.875 191.75 C-23.48054688 190.58984375 -23.08609375 189.4296875 -22.6796875 188.234375 C-21.91625356 184.60148244 -22.12450582 184.02391474 -24 181 C-25.4216117 179.38442737 -25.4216117 179.38442737 -27.08984375 177.890625 C-27.70432373 177.30909668 -28.31880371 176.72756836 -28.9519043 176.12841797 C-29.93477417 175.19860107 -29.93477417 175.19860107 -30.9375 174.25 C-44.08063071 161.40870144 -54.12180034 147.74195194 -54.5625 128.75 C-54.41780587 118.48274591 -50.75713588 113.60634259 -43.625 106.5625 C-42.90086914 105.86253906 -42.90086914 105.86253906 -42.16210938 105.1484375 C-28.185009 91.56744928 -24.04442389 76.34145666 -23.76074219 57.42456055 C-23.12597533 16.84244903 -23.12597533 16.84244903 -10 2 C-6.17279985 -0.55146677 -4.5688164 -0.43512537 0 0 Z " fill="#E49872" transform="translate(232,145)"/>
<path d="M0 0 C2 1 2 1 3.0703125 3.6171875 C3.41835938 4.69226563 3.76640625 5.76734375 4.125 6.875 C4.47820312 7.94492187 4.83140625 9.01484375 5.1953125 10.1171875 C6 13 6 13 6 16 C6.67804688 16.04898437 7.35609375 16.09796875 8.0546875 16.1484375 C14.49299341 16.66564213 20.69732977 17.59181121 27 19 C27 19.33 27 19.66 27 20 C26.15824219 20.20496094 25.31648437 20.40992188 24.44921875 20.62109375 C20.07294305 22.3706128 17.26056816 24.91426385 13.8125 28.0625 C12.47634106 29.25251655 11.13909582 30.44131448 9.80078125 31.62890625 C9.15061035 32.20914551 8.50043945 32.78938477 7.83056641 33.38720703 C5.44051906 35.49292226 2.98095667 37.50258811 0.5 39.5 C-3.91669155 43.07541697 -8.21776874 46.76603141 -12.5 50.5 C-17.66528288 55.00263572 -22.88944018 59.40932033 -28.21484375 63.72265625 C-33.53780841 68.07509439 -38.76258954 72.54528681 -44 77 C-48.09727316 74.38611916 -51.63179531 71.65303345 -55.1875 68.3125 C-59.75960878 64.08732631 -64.47348613 60.1235268 -69.31640625 56.21484375 C-71.94708557 54.04367173 -74.47942424 51.79758643 -77 49.5 C-80.41739372 46.38541332 -83.9052235 43.4081338 -87.5 40.5 C-93.54338392 35.60895623 -99.31106417 30.43006314 -105.00390625 25.13671875 C-108.22882622 22.21827066 -110.46134095 20.27507025 -115 20 C-115 19.67 -115 19.34 -115 19 C-108.4 17.68 -101.8 16.36 -95 15 C-94.38125 12.875625 -93.7625 10.75125 -93.125 8.5625 C-92.48201226 6.35490875 -91.78623891 4.16072227 -91 2 C-90.34 1.67 -89.68 1.34 -89 1 C-86.99584239 2.13070384 -85.0459996 3.35815374 -83.125 4.625 C-66.2297873 15.38865842 -49.34393614 19.20006529 -29.74609375 14.9765625 C-18.80070705 12.12322916 -8.94752309 6.87332456 0 0 Z " fill="#B67A5C" transform="translate(301,328)"/>
<path d="M0 0 C3.83990226 2.85772318 7.12072383 6.14598465 10.49023438 9.53369141 C12.74392027 11.7225073 15.17079667 13.66649028 17.625 15.625 C21.18184136 18.48881783 24.62539052 21.42346328 28 24.5 C31.39598682 27.59555196 34.86171531 30.55151207 38.4375 33.4375 C42.26455727 36.53148714 45.94280873 39.7283055 49.5625 43.0625 C54.52057717 47.62764598 59.67833662 51.86734167 65 56 C72.07646814 50.90494294 78.60617218 45.25072569 85.19628906 39.55371094 C87.97030305 37.164184 90.76506407 34.79952411 93.5625 32.4375 C94.09447998 31.98802002 94.62645996 31.53854004 95.17456055 31.07543945 C96.24662648 30.16978181 97.31881038 29.26426378 98.39111328 28.35888672 C101.09572292 26.07453812 103.79770615 23.78708709 106.5 21.5 C107.57421262 20.59113858 108.64843138 19.68228443 109.72265625 18.7734375 C111.980989 16.86259286 114.23871441 14.95103334 116.49609375 13.0390625 C117.07230469 12.55115234 117.64851562 12.06324219 118.2421875 11.56054688 C119.3321918 10.63755936 120.42204789 9.71439677 121.51171875 8.79101562 C123.00633647 7.5255983 124.50315335 6.26277996 126 5 C126.78624756 4.29943481 126.78624756 4.29943481 127.58837891 3.5847168 C130.40422401 1.11658788 131.68957439 0.0388032 135.5 -0.4375 C138.91213572 -0.01098304 141.80271499 0.75227902 145 2 C141.28931607 6.99023011 136.9411299 10.57522694 132.09375 14.4453125 C128.75804388 17.15184132 125.63086687 20.06133047 122.5 23 C117.76186718 27.43886768 112.87875669 31.59146266 107.8125 35.65625 C104.60150195 38.33208171 101.54970863 41.14358276 98.5 44 C93.77118736 48.42909916 88.90457834 52.57916209 83.83984375 56.625 C79.86974724 59.94524578 76.1233773 63.49528405 72.4140625 67.10351562 C67.22348552 72.041683 67.22348552 72.041683 64 72 C62.46484375 70.8828125 62.46484375 70.8828125 60.9375 69.125 C58.12919259 66.10295249 55.23489736 63.4994618 52 60.9375 C47.2942807 57.15611842 42.88322477 53.14935695 38.5 49 C34.27815418 45.0058338 30.04739967 41.12709259 25.5 37.5 C20.25852636 33.31930078 15.4291704 28.77288394 10.56445312 24.16772461 C5.99887332 19.86909337 1.28839312 15.88910975 -3.61328125 11.9765625 C-6.96780914 9.19850831 -10.0155184 6.16782859 -13 3 C-10.80794023 -1.38411953 -4.18992895 -1.15392741 0 0 Z " fill="#7C221B" transform="translate(191,348)"/>
<path d="M0 0 C2.53332862 3.14132749 5.02544414 6.31234632 7.5 9.5 C8.10972656 10.28117187 8.71945313 11.06234375 9.34765625 11.8671875 C10.56439934 13.43773532 11.7576776 15.02653094 12.9375 16.625 C27.61423527 33.52548303 48.84282347 44.28952542 71.015625 45.88671875 C71.67046875 45.92410156 72.3253125 45.96148437 73 46 C73 46.66 73 47.32 73 48 C71.49212839 49.37491299 69.91460239 50.67364462 68.3125 51.9375 C67.3225 52.72898437 66.3325 53.52046875 65.3125 54.3359375 C64.51199219 54.97547363 64.51199219 54.97547363 63.6953125 55.62792969 C60.69343886 58.05744148 57.75483506 60.56149484 54.8125 63.0625 C54.23604736 63.55161865 53.65959473 64.0407373 53.06567383 64.54467773 C51.709755 65.69563448 50.35477022 66.84769147 49 68 C44.90272684 65.38611916 41.36820469 62.65303345 37.8125 59.3125 C33.24039122 55.08732631 28.52651387 51.1235268 23.68359375 47.21484375 C21.05291443 45.04367173 18.52057576 42.79758643 16 40.5 C12.58260628 37.38541332 9.0947765 34.4081338 5.5 31.5 C-0.54338392 26.60895623 -6.31106417 21.43006314 -12.00390625 16.13671875 C-15.22882622 13.21827066 -17.46134095 11.27507025 -22 11 C-22 10.67 -22 10.34 -22 10 C-15.4 8.68 -8.8 7.36 -2 6 C-1.34 4.02 -0.68 2.04 0 0 Z " fill="#E29873" transform="translate(208,337)"/>
<path d="M0 0 C21.87847306 5.11799995 39.0164599 29.83775215 51.37109375 46.78125 C61.17286872 60.13234877 70.9738728 69.12786126 86 76 C88.00364623 76.99267405 90.0048601 77.99033829 92 79 C85.87979672 81.04006776 77.88045725 76.80334913 72.13818359 74.13476562 C58.39383811 67.19294884 44.90259232 57.0541673 34.87109375 45.3984375 C30.44948122 40.29303393 25.70974756 35.52579043 20.9375 30.75 C20.06544922 29.86570313 19.19339844 28.98140625 18.29492188 28.0703125 C9.45149388 18.9360859 9.45149388 18.9360859 -2.4375 15.6875 C-5.45419875 15.74607667 -6.70974252 15.81956968 -9.3125 17.4375 C-14.14202705 24.77122627 -16.39741741 33.18710403 -18.75 41.5625 C-19.06582031 42.66658203 -19.38164062 43.77066406 -19.70703125 44.90820312 C-20.47721901 47.60386027 -21.24139431 50.30106516 -22 53 C-22.33 53 -22.66 53 -23 53 C-23.77591281 35.77904622 -21.94650426 15.50873943 -10 2 C-6.17279985 -0.55146677 -4.5688164 -0.43512537 0 0 Z " fill="#B4785B" transform="translate(232,145)"/>
<path d="M0 0 C3.41213572 0.42651696 6.30271499 1.18977902 9.5 2.4375 C5.78759503 7.43004461 1.45085717 11.02577673 -3.42578125 14.8671875 C-5.60773317 16.63197083 -7.58941633 18.49362181 -9.54296875 20.5078125 C-18.12948175 29.27192182 -26.90294652 34.2010388 -39.4765625 34.546875 C-40.47429687 34.51078125 -41.47203125 34.4746875 -42.5 34.4375 C-38.673123 30.50915278 -34.65831063 26.88583798 -30.5 23.3125 C-29.84717041 22.74917969 -29.19434082 22.18585938 -28.52172852 21.60546875 C-22.21682592 16.17402211 -15.87253966 10.7894041 -9.5 5.4375 C-8.71810303 4.7412854 -8.71810303 4.7412854 -7.92041016 4.03100586 C-5.10207769 1.56048064 -3.81355719 0.47669465 0 0 Z " fill="#631B16" transform="translate(326.5,347.5625)"/>
<path d="M0 0 C0.28746094 0.5878125 0.57492187 1.175625 0.87109375 1.78125 C2.16951324 4.33316096 3.62107738 6.76707187 5.09765625 9.21875 C8.18106396 15.3054769 7.95506923 22.77812744 6.05859375 29.17578125 C2.54760253 38.01379364 -1.21695043 43.92215556 -10 48 C-12.71875 48.1015625 -12.71875 48.1015625 -15 48 C-13.6256753 40.02605359 -11.32168507 33.05498932 -8.0625 25.6875 C-4.35062367 17.2866704 -1.88180614 8.97572006 0 0 Z " fill="#9E6C54" transform="translate(365,218)"/>
<path d="M0 0 C0.33855332 11.28511076 -0.78221799 25.93367362 -8.66015625 34.88671875 C-9.10230469 35.25410156 -9.54445312 35.62148437 -10 36 C-13.87793529 28.58134119 -14.90605558 22.3810141 -14 14 C-12.40652458 8.95857345 -10.25367801 4.50575478 -5.875 1.375 C-3 0 -3 0 0 0 Z " fill="#E19874" transform="translate(156,218)"/>
<path d="M0 0 C0.99 0.33 1.98 0.66 3 1 C-4.65427431 10.46712875 -14.08704036 19.38762075 -25 25 C-25.66 24.67 -26.32 24.34 -27 24 C-20.30207414 17.74626468 -13.54729046 11.68273868 -6.375 5.97265625 C-4.1101357 4.09147784 -2.04485817 2.11586019 0 0 Z " fill="#83332C" transform="translate(336,350)"/>
</svg>
